<?xml version="1.0" encoding="utf-8"?>
<!-- Generator: Adobe Illustrator 16.0.0, SVG Export Plug-In . SVG Version: 6.00 Build 0)  -->
<!DOCTYPE svg PUBLIC "-//W3C//DTD SVG 1.1//EN" "http://www.w3.org/Graphics/SVG/1.1/DTD/svg11.dtd">
<svg version="1.1" id="Layer_1" xmlns="http://www.w3.org/2000/svg" xmlns:xlink="http://www.w3.org/1999/xlink" x="0px" y="0px"
	 width="512px" height="512px" stroke-width="8" viewBox="0 0 512 512" enable-background="new 0 0 512 512" xml:space="preserve">
<path fill="none" stroke="#8A6DE9" stroke-miterlimit="10" d="M492.139,277.134c0,0,15.469-14.917,12.375-47.734
	c0-44.75-49.501-47.733-49.501-47.733h-74.252c-6.188,0-9.281-5.966-9.281-11.933c9.281-20.884,24.75-62.65,18.563-92.484
	c-9.281-41.767-46.408-44.75-58.783-44.75c-3.094,0-6.187,2.983-6.187,5.966L294.134,122c0,0,0,2.983-3.094,2.983l-80.441,83.533
	c-3.094,2.983-6.188,2.983-9.281,2.983h-6.188v208.833h6.188c21.657,0,99.003,59.667,167.068,59.667
	c68.063,0,83.533-8.949,95.909-29.833c12.375-20.885,3.093-38.783,3.093-38.783s15.469-8.95,18.563-29.833
	c3.094-20.885-3.095-32.817-3.095-32.817s15.47-11.933,15.47-35.8C501.42,286.083,492.139,277.134,492.139,277.134L492.139,277.134z
	"/>
<path fill="none" stroke="#8A6DE9" stroke-miterlimit="10" d="M9.5,450.167h154.692V211.5H9.5V450.167z M86.846,345.75
	c18.563,0,30.939,11.933,30.939,29.834c0,17.899-12.375,29.833-30.939,29.833c-18.563,0-30.938-11.934-30.938-29.833
	C55.908,357.683,68.283,345.75,86.846,345.75z"/>
</svg>
