<?xml version="1.0" encoding="utf-8"?>
<!-- Generator: Adobe Illustrator 16.0.0, SVG Export Plug-In . SVG Version: 6.00 Build 0)  -->
<!DOCTYPE svg PUBLIC "-//W3C//DTD SVG 1.1//EN" "http://www.w3.org/Graphics/SVG/1.1/DTD/svg11.dtd">
<svg version="1.1" id="Layer_1" xmlns="http://www.w3.org/2000/svg" xmlns:xlink="http://www.w3.org/1999/xlink" x="0px" y="0px"
	 width="512px" height="512px" stroke-width="8" viewBox="0 0 512 512" enable-background="new 0 0 512 512" xml:space="preserve">
<path fill="none" stroke="#8A6DE9" stroke-miterlimit="10" d="M304.449,349h-96c0-93,51.2-124,86.4-142.6
	c12.8-6.2,22.399-12.4,28.8-18.6c16-15.5,9.6-37.2,6.399-43.4c-9.6-21.7-32-43.4-73.6-43.4c-67.2,0-80,58.9-80,71.3l-96-12.4
	c6.4-52.7,54.4-151.9,176-151.9c73.6,0,137.6,40.3,163.2,99.2c22.399,52.7,12.8,108.5-25.601,145.7
	c-16,15.5-35.199,24.8-51.199,34.1C314.049,302.5,304.449,318,304.449,349L304.449,349z"/>
<path fill="#FFFFFF" stroke="#8A6DE9" d="M320.449,442c0,34.256-28.641,62-64,62c-35.36,0-64-27.744-64-62s28.64-62,64-62
	C291.809,380,320.449,407.744,320.449,442z"/>
</svg>
