<?xml version="1.0" encoding="utf-8"?>
<!-- Generator: Adobe Illustrator 16.0.0, SVG Export Plug-In . SVG Version: 6.00 Build 0)  -->
<!DOCTYPE svg PUBLIC "-//W3C//DTD SVG 1.1//EN" "http://www.w3.org/Graphics/SVG/1.1/DTD/svg11.dtd">
<svg version="1.1" id="Layer_1" xmlns="http://www.w3.org/2000/svg" xmlns:xlink="http://www.w3.org/1999/xlink" x="0px" y="0px"
	 width="640px" height="480px" viewBox="0 0 640 480" enable-background="new 0 0 640 480" xml:space="preserve">
<g>
	<g>
		<path fill="#1E679E" d="M584.499,372.854c0,4.617-3.318,9.161-7.928,9.161H81.762c-4.608,0-8.762-4.544-8.762-9.161V65.839
			c0-4.617,4.152-8.123,8.762-8.123h494.811c4.609,0,7.928,3.506,7.928,8.123L584.499,372.854L584.499,372.854z"/>
		<path fill="#FFFFFF" d="M576.989,365.317c0,4.479-3.222,8.146-7.693,8.146H89.015c-4.474,0-8.505-3.667-8.505-8.146V67.315
			c0-4.48,4.031-7.744,8.505-7.744h480.282c4.472,0,7.693,3.263,7.693,7.744L576.989,365.317L576.989,365.317z"/>
		<path opacity="0.1" enable-background="new    " d="M584.499,103.788V69.254c0-4.617-3.318-7.978-7.928-7.978H81.762
			c-4.608,0-8.762,3.361-8.762,7.978v34.532h511.499V103.788z"/>
		<path fill="#4987D8" d="M584.499,97.335V62.802c0-4.616-3.318-7.979-7.928-7.979H81.762c-4.608,0-8.762,3.363-8.762,7.979v34.531
			h511.499V97.335z"/>
		<g>
			<g>
				<path fill="#2971B2" d="M110.103,86.714c-1.174,1.067-3.078,1.067-4.251,0L90.099,72.382c-1.174-1.068-1.174-2.8,0-3.868
					l0.25-0.228c1.174-1.068,3.077-1.068,4.25,0l15.754,14.332c1.174,1.067,1.174,2.798,0,3.868L110.103,86.714z"/>
				<path fill="#2971B2" d="M90.099,86.486c-1.174-1.068-1.174-2.8,0-3.868l15.753-14.332c1.174-1.068,3.078-1.069,4.251,0
					l0.25,0.227c1.175,1.068,1.175,2.801,0,3.867L94.6,86.713c-1.175,1.068-3.078,1.068-4.251,0L90.099,86.486z"/>
			</g>
		</g>
		<path fill="#2971B2" d="M142.257,81.678c0,2.778-2.475,5.029-5.528,5.029h-8.969c-3.053,0-5.528-2.251-5.528-5.029v-8.159
			c0-2.779,2.476-5.031,5.528-5.031h8.969c3.054,0,5.528,2.252,5.528,5.031V81.678z"/>
		<path fill="#2971B2" d="M173.13,82.673c0,1.389-1.238,2.516-2.765,2.516h-14.497c-1.527,0-2.765-1.126-2.765-2.516V82.39
			c0-1.39,1.239-2.516,2.765-2.516h14.497c1.527,0,2.765,1.126,2.765,2.516V82.673z"/>
		<g>
			<g>
				<defs>
					<path id="SVGID_1_" d="M576.766,365.317c0,4.479-2.998,8.677-7.47,8.677H89.015c-4.474,0-8.281-4.197-8.281-8.677V67.315
						c0-4.48,3.808-7.308,8.281-7.308h480.282c4.472,0,7.47,2.827,7.47,7.308L576.766,365.317L576.766,365.317z"/>
				</defs>
				<clipPath id="SVGID_2_">
					<use xlink:href="#SVGID_1_"  overflow="visible"/>
				</clipPath>
				<g clip-path="url(#SVGID_2_)">
					<path fill="#C9D3DF" d="M327.343,396.307h69.327c15.021,0,27.195-11.004,27.195-24.665c0,0,4.93-23.468,0-50.063
						c-2.498-13.473-13.768-24.119-27.195-28.442c-16.467-5.305-52.136-7.865-69.472-7.865h-1.079
						c-17.334,0-53.012,2.579-69.479,7.881c-13.426,4.326-24.696,14.982-27.194,28.457c-4.931,26.595,0,50.027,0,50.027
						c0,13.663,12.175,24.669,27.194,24.669h69.342L327.343,396.307L327.343,396.307z"/>
					<g>
						<path fill="#7792AF" d="M283.475,288.056c-10.427,1.262-20.192,2.959-26.834,5.097c-13.426,4.326-24.696,14.982-27.194,28.457
							c-4.93,26.595,0,50.027,0,50.027c0,13.663,12.175,24.669,27.194,24.669h53.434L283.475,288.056z"/>
						<path fill="#7792AF" d="M423.865,321.579c-2.498-13.473-13.768-24.119-27.195-28.442c-6.656-2.146-16.455-3.842-26.912-5.102
							l-28.17,108.271h55.082c15.021,0,27.195-11.004,27.195-24.665C423.865,371.64,428.795,348.174,423.865,321.579z"/>
					</g>
					<polygon fill="#657B8E" points="283.582,288.056 259.787,315.86 283.501,329.692 268.679,357.714 295.932,396.307 
						310.29,396.307 					"/>
					<polygon fill="#657B8E" points="369.101,288.056 392.896,315.86 369.184,329.692 384.005,357.714 356.751,396.307 
						342.393,396.307 					"/>
					<rect x="295.055" y="247.941" fill="#EDB9A2" width="60.761" height="42.399"/>
					<g>
						<path fill="#FFD6BB" d="M387.575,222.363c0,30.429-27.848,55.097-61.726,55.097c-33.879,0-61.728-24.668-61.728-55.097
							v-30.378c0-30.429,27.849-55.098,61.728-55.098c33.878,0,61.534,24.668,61.534,55.098L387.575,222.363z"/>
						<path fill="#866855" d="M265.211,195.999c35.27,10.27,73.305-6.959,84.451-38.636l5.974-17.353
							c-8.842-4.4-18.987-6.917-29.785-6.917c-33.879,0-61.73,24.667-61.73,55.097v7.458
							C264.122,195.761,264.836,195.889,265.211,195.999z"/>
						<path fill="#866855" d="M387.375,188.189c0-23.166-16.045-42.98-38.651-51.125c-2.848,24.308,12.847,48.105,38.694,57.488
							L387.375,188.189z"/>
					</g>
					<ellipse fill="#EDB9A2" cx="325.878" cy="290.913" rx="29.755" ry="4.688"/>
					<path fill="#657B8E" d="M339.18,305.354c0,5.021-4.475,9.092-9.992,9.092h-5.882c-5.52,0-9.993-4.071-9.993-9.092v-0.035
						c0-5.022,4.474-9.094,9.993-9.094h5.882c5.518,0,9.992,4.071,9.992,9.094V305.354z"/>
					<polygon fill="#657B8E" points="341.587,404.935 310.29,404.935 319.221,312.114 334.105,312.114 					"/>
				</g>
			</g>
		</g>
	</g>
	<g>
		<path opacity="0.1" enable-background="new    " d="M569.577,354.299c0,8.343-5.515,15.106-12.315,15.106H96.901
			c-6.801,0-12.315-6.763-12.315-15.106l0,0c0-8.343,5.514-15.107,12.315-15.107h460.361
			C564.063,339.192,569.577,345.956,569.577,354.299L569.577,354.299z"/>
		<path fill="#F2F2F2" d="M565.308,354.299c0,6.666-5.417,12.069-12.1,12.069H100.954c-6.683,0-12.099-5.403-12.099-12.069l0,0
			c0-6.665,5.417-12.07,12.099-12.07h452.254C559.891,342.229,565.308,347.634,565.308,354.299L565.308,354.299z"/>
		<g>
			<path fill="#4987D8" d="M558.633,354.299c0,2.725-2.429,4.936-5.425,4.936H105.125c-2.995,0-5.424-2.211-5.424-4.936l0,0
				c0-2.727,2.428-4.936,5.424-4.936h448.083C556.204,349.365,558.633,351.575,558.633,354.299L558.633,354.299z"/>
			<path fill="#F24B69" d="M235.712,354.299c0,2.725-2.428,4.936-5.423,4.936H105.125c-2.995,0-5.424-2.211-5.424-4.936l0,0
				c0-2.727,2.428-4.936,5.424-4.936h125.163C233.284,349.365,235.712,351.575,235.712,354.299L235.712,354.299z"/>
			<path opacity="0.1" enable-background="new    " d="M234.043,354.299c0-2.727-2.428-4.936-5.425-4.936h-12.651
				c-0.967,1.439-1.534,3.125-1.534,4.936c0,1.81,0.567,3.496,1.534,4.936h12.651C231.615,359.234,234.043,357.023,234.043,354.299z
				"/>
			<ellipse fill="#4987D8" cx="228.202" cy="354.299" rx="10.43" ry="9.488"/>
		</g>
	</g>
	<g>
		<path opacity="0.1" enable-background="new    " d="M327.915,124.423c-62.4,0-112.987,46.021-112.987,102.791
			c0,56.771,50.586,102.792,112.987,102.792s112.984-46.021,112.984-102.792C440.9,170.445,390.315,124.423,327.915,124.423z
			 M327.915,308.372c-49.268,0-89.207-36.336-89.207-81.158s39.939-81.158,89.207-81.158c49.268,0,89.206,36.335,89.206,81.158
			C417.121,272.037,377.183,308.372,327.915,308.372z"/>
		<path fill="#4987D8" d="M328.749,118.351c-62.4,0-112.985,46.022-112.985,102.79c0,56.771,50.586,102.792,112.985,102.792
			c62.401,0,112.986-46.021,112.986-102.792C441.735,164.372,391.15,118.351,328.749,118.351z M328.749,302.3
			c-49.267,0-89.207-36.335-89.207-81.159c0-44.821,39.939-81.156,89.207-81.156c49.268,0,89.207,36.335,89.207,81.156
			C417.956,265.964,378.017,302.3,328.749,302.3z"/>
		<ellipse opacity="0.3" fill="#FFFFFF" enable-background="new    " cx="328.749" cy="221.143" rx="89.208" ry="81.157"/>
		<polygon fill="#4987D8" points="297.566,177.813 385.131,227.745 298.047,277.237 		"/>
	</g>
</g>
<g>
	<g>
		<path fill="#2E586D" d="M133.473,548.965c0.417,0,0.727,0.029,1.08,0.083l0.102-0.58c0,0-0.978-0.273-2.262-0.178l-0.101-0.313
			c0.398-0.076,0.699-0.401,0.699-0.788c0-0.44-0.395-0.798-0.881-0.798c-0.486,0-0.88,0.358-0.88,0.798
			c0,0.387,0.299,0.711,0.697,0.788l0.112,0.352c-1.363,0.17-2.449,0.653-2.449,0.653l0.192,0.536c0.826-0.25,1.541-0.4,2.189-0.467
			C132.605,548.99,133.083,548.965,133.473,548.965z"/>
	</g>
</g>
<g>
	<path fill="#F4AB76" d="M337.035,358.096c0,7.755-6.941,14.043-15.467,14.043l0,0c-8.525,0-15.466-6.288-15.466-14.043v-88.059
		c0-7.756,6.941-14.045,15.466-14.045l0,0c8.525,0,15.467,6.289,15.467,14.045V358.096z"/>
	<path fill="#F4AB76" d="M360.235,394.969c0,6.258-5.772,11.112-12.65,11.112h-0.121c-6.88,0-12.637-4.854-12.637-11.112v-70.711
		c0-6.258,5.758-10.998,12.637-10.998h0.121c6.88,0,12.65,4.74,12.65,10.998V394.969z"/>
	<path fill="#F4AB76" d="M384.54,404.078c0,6.259-5.043,11.17-11.922,11.17h-0.123c-6.879,0-12.26-4.911-12.26-11.17v-70.711
		c0-6.258,5.381-12.086,12.26-12.086h0.123c6.879,0,11.922,5.828,11.922,12.086V404.078z"/>
	<path fill="#D3946A" d="M280.486,339.662c0,0,21.185-13.396,29.796,20.029c8.61,33.428,10.181,63.191,10.181,63.191v4.672
		c0,0-24.656-23.504-31.397-30.597C282.327,389.863,298.421,367.759,280.486,339.662z"/>
	<path fill="#F4AB76" d="M401.468,412.378c-0.501,6.242-6.471,10.931-13.332,10.475l0,0c-6.859-0.456-12.014-5.888-11.511-12.129
		l5.701-70.859c0.502-6.241,6.471-10.932,13.329-10.474l0,0c6.861,0.456,12.017,5.886,11.515,12.128L401.468,412.378z"/>
	<path fill="#F4AB76" d="M305.803,321.518c0,0-7.945,106.775,27.953,113.827c37.878,7.439,73.292,28.141,71.225-66.622
		L305.803,321.518z"/>
	<ellipse fill="#F9C19B" cx="321.143" cy="271.556" rx="10.441" ry="9.5"/>
	<g>
		<path fill="#D3946A" d="M336.729,318.512c0,0-0.063,2.142-0.439,5.292c-0.098,0.79-0.098,1.634-0.183,2.521
			c-0.048,0.889-0.175,1.817-0.189,2.78c-0.02,0.964-0.006,1.958-0.056,2.964c0.054,1.006,0.107,2.029,0.162,3.051
			c0.09,1.035,0.181,2.072,0.271,3.092c0.113,1.028,0.165,2.059,0.249,3.046c0.098,0.983,0.087,1.961,0.118,2.874
			c0.024,0.913,0.044,1.779,0.018,2.576c-0.131,3.2-0.417,5.313-0.417,5.313s-0.459-2.102-0.852-5.227
			c-0.12-0.778-0.253-1.62-0.393-2.513c-0.129-0.89-0.266-1.831-0.407-2.802c-0.139-0.977-0.319-1.978-0.435-3.009
			c-0.116-1.047-0.235-2.108-0.354-3.172c-0.028-1.084-0.061-2.17-0.09-3.237c0.058-1.068,0.172-2.116,0.254-3.126
			c0.069-1.015,0.338-1.966,0.497-2.876c0.186-0.902,0.341-1.769,0.571-2.525C335.943,320.496,336.729,318.512,336.729,318.512z"/>
	</g>
	<g>
		<path fill="#D3946A" d="M330.747,312.938c0,0-0.305-0.001-0.835-0.033c-0.263-0.02-0.584-0.036-0.949-0.08
			c-0.361-0.023-0.777-0.112-1.215-0.115c-0.438-0.013-0.908-0.025-1.396-0.069c-0.245-0.018-0.493-0.033-0.75-0.053
			c-0.263,0.013-0.527,0-0.796-0.001c-0.54-0.009-1.095-0.018-1.66-0.026c-0.565,0.018-1.139,0.037-1.714,0.056
			c-0.575-0.021-1.152,0.059-1.721,0.082c-0.565,0.039-1.13,0.034-1.678,0.096c-0.544,0.053-1.077,0.062-1.582,0.089
			c-0.505,0.045-0.987,0.063-1.433,0.076c-1.784,0.076-3.009-0.021-3.009-0.021s1.104-0.559,2.825-1.103
			c0.859-0.287,1.875-0.563,2.991-0.774c0.554-0.114,1.131-0.229,1.729-0.272c0.597-0.047,1.197-0.154,1.81-0.153
			c0.611,0.003,1.222,0.008,1.823,0.012c0.602,0.022,1.19,0.142,1.76,0.204c0.285,0.04,0.565,0.07,0.835,0.121
			c0.272,0.071,0.539,0.144,0.799,0.212c0.517,0.135,0.997,0.287,1.434,0.426c0.448,0.117,0.8,0.34,1.14,0.485
			c0.333,0.154,0.619,0.311,0.855,0.432C330.482,312.776,330.747,312.938,330.747,312.938z"/>
	</g>
	<g>
		<path fill="#D3946A" d="M330.747,316.733c0,0-0.305-0.002-0.835-0.033c-0.263-0.021-0.584-0.036-0.949-0.081
			c-0.361-0.022-0.777-0.112-1.215-0.115c-0.438-0.012-0.908-0.025-1.396-0.068c-0.245-0.018-0.493-0.034-0.75-0.054
			c-0.263,0.014-0.527,0-0.796,0c-0.54-0.01-1.095-0.019-1.66-0.026c-0.565,0.018-1.139,0.035-1.714,0.056
			c-0.575-0.022-1.152,0.059-1.721,0.081c-0.565,0.04-1.13,0.035-1.678,0.097c-0.544,0.053-1.077,0.062-1.582,0.089
			c-0.505,0.045-0.987,0.063-1.433,0.075c-1.784,0.076-3.009-0.021-3.009-0.021s1.104-0.559,2.825-1.103
			c0.859-0.288,1.875-0.563,2.991-0.774c0.554-0.115,1.131-0.23,1.729-0.272c0.597-0.047,1.197-0.154,1.81-0.154
			c0.611,0.004,1.222,0.009,1.823,0.013c0.602,0.022,1.19,0.142,1.76,0.204c0.285,0.04,0.565,0.069,0.835,0.121
			c0.272,0.071,0.539,0.143,0.799,0.212c0.517,0.134,0.997,0.286,1.434,0.426c0.448,0.116,0.8,0.339,1.14,0.485
			c0.333,0.154,0.619,0.309,0.855,0.431C330.482,316.572,330.747,316.733,330.747,316.733z"/>
	</g>
	<g>
		<path fill="#D3946A" d="M360.04,329.359c0,0,0.28,1.528,0.406,3.807c0.038,0.569,0.078,1.187,0.055,1.842
			c-0.007,0.655-0.003,1.348-0.044,2.063c-0.051,1.431-0.14,2.962-0.287,4.479c-0.156,1.507-0.359,3.009-0.591,4.413
			c-0.223,1.404-0.477,2.709-0.733,3.819c-0.491,2.227-1.016,3.697-1.016,3.697s-0.216-1.544-0.246-3.835
			c-0.027-1.148-0.009-2.479,0.062-3.897c0.062-1.419,0.171-2.93,0.328-4.435c0.143-1.497,0.332-2.98,0.548-4.376
			c0.202-1.398,0.475-2.691,0.664-3.825C359.583,330.854,360.04,329.359,360.04,329.359z"/>
	</g>
	<g>
		<path fill="#D3946A" d="M384.951,333.693c0.018-0.02,0.096,0.386,0.188,1.068c0.088,0.686,0.19,1.662,0.248,2.831
			c0.069,1.171,0.1,2.534,0.084,3.989c-0.014,1.457-0.065,3.006-0.172,4.552c-0.104,1.547-0.257,3.089-0.443,4.532
			c-0.178,1.443-0.392,2.788-0.618,3.936c-0.431,2.299-0.917,3.813-0.917,3.813s-0.254-1.575-0.349-3.911
			c-0.059-1.17-0.081-2.529-0.057-3.983c0.017-1.456,0.075-3.003,0.182-4.549c0.104-1.544,0.259-3.085,0.437-4.526
			c0.175-1.444,0.381-2.787,0.593-3.937c0.202-1.148,0.418-2.104,0.575-2.772C384.862,334.072,384.977,333.677,384.951,333.693z"/>
	</g>
</g>
<polyline fill="#45718C" points="272.248,534.366 310.097,427.854 404.143,427.854 441.99,534.406 "/>
</svg>
