<?xml version="1.0" encoding="utf-8"?>
<!-- Generator: Adobe Illustrator 16.0.0, SVG Export Plug-In . SVG Version: 6.00 Build 0)  -->
<!DOCTYPE svg PUBLIC "-//W3C//DTD SVG 1.1//EN" "http://www.w3.org/Graphics/SVG/1.1/DTD/svg11.dtd">
<svg version="1.1" id="Layer_1" xmlns="http://www.w3.org/2000/svg" xmlns:xlink="http://www.w3.org/1999/xlink" x="0px" y="0px"
	 width="640px" height="480px" viewBox="0 0 640 480" enable-background="new 0 0 640 480" xml:space="preserve">
<g>
	<path fill="#DBEEFF" d="M504.813,364.7c3.057,0.387,5.846-1.816,6.229-4.911c0.383-3.102-1.784-5.929-4.844-6.314
		c-0.75-0.099-1.5-0.224-2.24-0.384c-6.444-1.399-11.695-5.178-15.109-10.353c-3.484-5.278-5.108-12.037-4.215-19.291
		c0.116-0.923,0.272-1.871,0.477-2.83c1.777-8.433,6.6-15.653,12.945-20.51c6.262-4.793,14-7.27,21.718-6.293
		c1.676,0.213,3.325,0.494,4.955,0.845c14.353,3.111,26.058,11.546,33.682,23.104c7.698,11.656,11.29,26.535,9.339,42.41
		c-0.252,2.025-0.593,4.073-1.031,6.147c-3.849,18.222-14.268,33.829-28.01,44.341c-13.644,10.438-30.55,15.831-47.48,13.69
		c-2.596-0.326-5.155-0.766-7.673-1.313c-22.253-4.819-40.411-17.908-52.252-35.852c-11.911-18.037-17.472-41.031-14.459-65.527
		c0.386-3.12,0.913-6.28,1.583-9.466c5.917-28.009,21.938-52.003,43.063-68.172c21.037-16.093,47.116-24.398,73.249-21.097
		c3.516,0.445,6.984,1.04,10.388,1.778c30.164,6.538,54.777,24.28,70.824,48.604c16.124,24.427,23.655,55.529,19.577,88.661
		c-0.517,4.22-1.226,8.476-2.133,12.772c-0.573,2.734,0.896,5.425,3.365,6.43v-92.501c-3.208-7.616-7.076-14.852-11.541-21.628
		c-17.648-26.736-44.667-46.23-77.755-53.407c-3.696-0.802-7.477-1.446-11.34-1.934c-29.102-3.675-58.06,5.507-81.347,23.32
		c-23.195,17.749-40.786,44.083-47.271,74.805c-0.738,3.482-1.313,6.961-1.74,10.425c-3.357,27.27,2.903,52.951,16.265,73.205
		c13.436,20.354,34.003,35.195,59.186,40.656c2.811,0.607,5.68,1.098,8.623,1.472c19.894,2.508,39.681-3.756,55.578-15.921
		c15.812-12.095,27.799-30.045,32.219-50.979c0.5-2.367,0.896-4.741,1.185-7.104c2.299-18.641-1.997-36.214-11.146-50.083
		c-9.224-13.979-23.338-24.163-40.612-27.906c-1.917-0.418-3.889-0.753-5.902-1.009c-10.693-1.349-21.306,2-29.816,8.512
		c-8.424,6.446-14.812,16.008-17.16,27.148c-0.268,1.259-0.479,2.529-0.632,3.801c-1.235,10,1.083,19.464,6.027,26.953
		c5.007,7.592,12.664,13.12,22.036,15.149C502.651,364.377,503.716,364.561,504.813,364.7z"/>
	<path fill="#46749C" d="M623.252,259.713c5.426-6.546,4.588-16.308-1.871-21.81c-6.467-5.499-16.099-4.649-21.526,1.897
		c-5.426,6.546-4.585,16.31,1.872,21.811C608.187,267.107,617.824,266.258,623.252,259.713z"/>
	<polygon fill="#46749C" points="636.764,266.594 537.93,182.476 533.44,187.891 636.764,275.829 	"/>
	<path fill="#46749C" d="M547.383,195.139c5.428-6.546,4.587-16.308-1.872-21.806c-6.461-5.501-16.097-4.654-21.522,1.895
		c-5.427,6.547-4.587,16.31,1.869,21.809C532.316,202.538,541.956,201.687,547.383,195.139z"/>
	<g>
		<path fill="#6690B5" d="M440.771,305.165c7.882-9.505,6.659-23.685-2.722-31.666c-9.38-7.987-23.376-6.756-31.254,2.751
			c-7.88,9.507-6.663,23.683,2.719,31.668C418.9,315.906,432.893,314.673,440.771,305.165z"/>
		<path fill="#DBEEFF" d="M435.885,301.011c5.618-6.772,4.754-16.877-1.934-22.565c-6.686-5.692-16.656-4.812-22.272,1.962
			c-5.614,6.771-4.748,16.877,1.936,22.567C420.3,308.666,430.274,307.787,435.885,301.011z"/>
	</g>
	<g>
		<path fill="#6690B5" d="M578.485,412.091c7.885-9.504,6.665-23.685-2.717-31.666c-9.379-7.986-23.37-6.755-31.253,2.753
			c-7.883,9.504-6.661,23.68,2.718,31.667C556.613,422.833,570.605,421.597,578.485,412.091z"/>
		<path fill="#DBEEFF" d="M573.605,407.937c5.615-6.771,4.745-16.877-1.935-22.573c-6.688-5.686-16.66-4.806-22.272,1.966
			c-5.618,6.778-4.752,16.882,1.935,22.571C558.019,415.589,567.99,414.709,573.605,407.937z"/>
	</g>
	<g>
		<path fill="#6690B5" d="M520.803,373.048c7.878-9.506,6.662-23.683-2.719-31.669s-23.372-6.749-31.257,2.753
			c-7.876,9.508-6.664,23.684,2.721,31.672C498.93,383.787,512.924,382.553,520.803,373.048z"/>
		<path fill="#DBEEFF" d="M515.921,368.892c5.617-6.768,4.745-16.876-1.937-22.566c-6.688-5.688-16.658-4.809-22.275,1.964
			c-5.614,6.772-4.746,16.874,1.941,22.574C500.33,376.548,510.304,375.668,515.921,368.892z"/>
	</g>
	<g>
		<path fill="#6690B5" d="M636.764,357.016c-7.09-0.759-14.414,1.952-19.343,7.896c-7.883,9.506-6.665,23.688,2.718,31.671
			c4.81,4.096,10.834,5.766,16.625,5.142V357.016z"/>
		<path fill="#DBEEFF" d="M636.764,363.529c-5.26-0.796-10.794,1.109-14.463,5.539c-5.615,6.772-4.747,16.877,1.937,22.566
			c3.619,3.08,8.193,4.235,12.526,3.573V363.529L636.764,363.529z"/>
	</g>
	<g>
		<path fill="#6690B5" d="M464.072,424.743c7.878-9.51,6.663-23.688-2.721-31.669c-9.381-7.986-23.372-6.758-31.254,2.754
			c-7.879,9.509-6.664,23.681,2.715,31.671C442.197,435.48,456.192,434.247,464.072,424.743z"/>
		<path fill="#DBEEFF" d="M459.19,420.587c5.612-6.774,4.744-16.876-1.938-22.566c-6.688-5.694-16.657-4.811-22.275,1.961
			c-5.617,6.777-4.748,16.882,1.939,22.569C443.6,428.24,453.571,427.36,459.19,420.587z"/>
	</g>
</g>
<g>
	<g>
		<polygon fill="#4D4D4D" points="227.597,400.244 315.328,400.244 356.449,475.727 186.476,475.727 		"/>
		<path fill="#46749C" d="M64.734,105.647h413.45c11.642,0,21.157,9.645,21.157,21.437v270.859c0,11.789-9.516,21.436-21.157,21.436
			H64.734c-11.631,0-21.15-9.646-21.15-21.436V127.083C43.584,115.292,53.1,105.647,64.734,105.647z"/>
		<g>
			<path fill="#F5F5F5" d="M473.656,397.654c1.513,0,2.743,1.245,2.743,2.778c0,1.538-1.229,2.79-2.743,2.79
				c-1.518,0-2.748-1.25-2.748-2.79C470.908,398.901,472.139,397.654,473.656,397.654z"/>
			<path fill="#F5F5F5" d="M462.93,397.654c1.514,0,2.746,1.245,2.746,2.778c0,1.538-1.232,2.79-2.746,2.79
				c-1.519,0-2.749-1.25-2.749-2.79C460.182,398.901,461.411,397.654,462.93,397.654z"/>
			<path fill="#F5F5F5" d="M452.205,397.654c1.517,0,2.747,1.245,2.747,2.778c0,1.538-1.229,2.79-2.747,2.79
				c-1.52,0-2.747-1.25-2.747-2.79C449.458,398.901,450.685,397.654,452.205,397.654z"/>
		</g>
		<path fill="#46749C" d="M19.147,452.911h504.629c6.189,0,11.255,5.134,11.255,11.407l0,0c0,6.27-5.064,11.404-11.255,11.404
			H19.147c-6.189,0-11.257-5.135-11.257-11.404l0,0C7.89,458.044,12.957,452.911,19.147,452.911z"/>
		<path fill="#4D4D4D" d="M535.03,464.317c0,6.274-5.064,11.409-11.255,11.409H19.147c-6.191,0-11.257-5.135-11.257-11.409H535.03z"
			/>
	</g>
	<rect x="57.623" y="118.152" fill="#FFFFFF" width="427.677" height="262.952"/>
	<rect x="86.012" y="118.152" fill="#91BDE3" width="370.899" height="22.77"/>
	<rect x="185.154" y="154.774" fill="#ED7B5C" width="172.616" height="34.685"/>
	<rect x="86.011" y="230.07" fill="#5896CC" width="370.901" height="95.616"/>
	<rect x="157.248" y="203.019" fill="#91BDE3" width="228.428" height="14.539"/>
	<rect x="108.478" y="344.884" fill="#FFD47F" width="93.133" height="36.222"/>
	<rect x="224.896" y="344.884" fill="#ED7B5C" width="93.134" height="36.222"/>
	<rect x="341.313" y="344.884" fill="#91BDE3" width="93.135" height="36.222"/>
	<g>
		<path fill="#FFFFFF" d="M436.682,271.728c-0.593-0.749-0.465-1.846,0.271-2.44c0.742-0.601,1.825-0.476,2.418,0.276l4.443,5.641
			c0.038,0.05,0.079,0.101,0.109,0.155l0.008,0.008l0.042,0.074l0.032,0.058l0.01,0.015l0.027,0.066l0.018,0.042
			c0.027,0.06,0.046,0.116,0.067,0.181l0.004,0.019c0.024,0.079,0.037,0.157,0.05,0.239l0.005,0.012
			c0.006,0.063,0.013,0.12,0.013,0.18v0.041v0.022v0.038c0,0.061-0.007,0.121-0.013,0.181l-0.005,0.017
			c-0.013,0.075-0.025,0.159-0.05,0.234l-0.004,0.018c-0.02,0.063-0.038,0.122-0.067,0.181l-0.018,0.042l-0.027,0.066l-0.01,0.016
			l-0.032,0.063l-0.042,0.07l-0.008,0.008c-0.028,0.054-0.072,0.106-0.109,0.158l-4.443,5.639c-0.593,0.75-1.676,0.877-2.418,0.277
			c-0.735-0.6-0.863-1.693-0.271-2.441l3.604-4.576L436.682,271.728z"/>
		<path fill="#FFFFFF" d="M103.556,269.563c0.59-0.75,1.669-0.877,2.41-0.276c0.743,0.595,0.866,1.691,0.274,2.44l-3.603,4.574
			l3.603,4.575c0.592,0.749,0.469,1.842-0.274,2.441c-0.742,0.6-1.82,0.474-2.41-0.276l-4.445-5.641
			c-0.042-0.051-0.078-0.104-0.11-0.156l-0.005-0.008l-0.044-0.071l-0.032-0.062l-0.01-0.018l-0.029-0.064l-0.016-0.042
			c-0.027-0.059-0.048-0.117-0.066-0.182l-0.006-0.018c-0.024-0.074-0.037-0.159-0.051-0.232v-0.02
			c-0.007-0.059-0.013-0.119-0.014-0.181v-0.039v-0.022v-0.04c0.001-0.059,0.006-0.117,0.014-0.181l0.001-0.012
			c0.013-0.081,0.026-0.16,0.051-0.239l0.006-0.019c0.019-0.063,0.039-0.122,0.067-0.182l0.016-0.041l0.029-0.064l0.01-0.018
			l0.032-0.057l0.044-0.074l0.007-0.009c0.033-0.055,0.069-0.104,0.11-0.153L103.556,269.563z"/>
	</g>
</g>
<g>
	<path fill="#ED7B5C" d="M394.241,155.42l-16.31,45.162l43.905-18.263L560.98,35.773c3.976-4.196,3.85-10.926-0.29-14.962
		L548.148,8.587c-4.137-4.033-10.78-3.903-14.764,0.289L394.241,155.42z"/>
	<path fill="#FA9891" d="M394.239,155.42l-16.309,45.162l31.312-32.976L554.419,14.7l-6.271-6.112
		c-4.137-4.034-10.78-3.903-14.762,0.289L394.239,155.42z"/>
	<path fill="#CCCCCC" d="M394.241,155.42l-16.31,45.162l43.905-18.263L550.313,46.998c-8.124-11.145-17.328-19.971-27.593-26.895
		L394.241,155.42z"/>
	<path fill="#FFFFFF" d="M394.239,155.42l-16.309,45.162l31.312-32.976l128.443-135.28c-4.708-4.616-9.696-8.669-14.965-12.223
		L394.239,155.42z"/>
	<path fill="#ED7B5C" d="M394.241,155.42l-16.31,45.162l43.905-18.263L541.85,55.917c-8.07-11.313-17.275-20.133-27.595-26.895
		L394.241,155.42z"/>
	<path fill="#FA9891" d="M395.237,154.447l-16.188,44.806l31.068-32.723l119.12-125.46c-4.683-4.594-9.654-8.59-14.921-12.042
		L395.237,154.447z"/>
	<path fill="#CCCCCC" d="M394.239,155.424l-16.309,45.158l43.903-18.262c-3.603-5.1-7.812-10.054-12.592-14.715
		C404.455,162.941,399.412,158.871,394.239,155.424z"/>
	<path fill="#FFFFFF" d="M394.241,155.424l-16.31,45.158l31.313-32.976C404.455,162.941,399.412,158.871,394.241,155.424z"/>
	<path fill="#91BDE3" d="M383.32,185.663l-5.39,14.919l14.502-6.03c-1.188-1.686-2.578-3.321-4.157-4.861
		C386.691,188.146,385.024,186.803,383.32,185.663z"/>
</g>
</svg>
