<?xml version="1.0" encoding="utf-8"?>
<!-- Generator: Adobe Illustrator 16.0.0, SVG Export Plug-In . SVG Version: 6.00 Build 0)  -->
<!DOCTYPE svg PUBLIC "-//W3C//DTD SVG 1.1//EN" "http://www.w3.org/Graphics/SVG/1.1/DTD/svg11.dtd">
<svg version="1.1" id="Layer_1" xmlns="http://www.w3.org/2000/svg" xmlns:xlink="http://www.w3.org/1999/xlink" x="0px" y="0px"
	 width="640px" height="480px" viewBox="0 0 640 480" enable-background="new 0 0 640 480" xml:space="preserve">
<g>
	<path fill="#B74356" d="M174.414,52.423c0,15.341-11.28,27.771-25.197,27.771h-31.458c-13.924,0-25.198-12.429-25.198-27.771l0,0
		c0-15.342,11.274-27.78,25.198-27.78h31.458C163.134,24.643,174.414,37.081,174.414,52.423L174.414,52.423z"/>
	<path fill="#F4EFE2" d="M611.598,393c0,34.441-25.333,62.357-56.581,62.357H84.973c-31.247,0-56.57-27.916-56.57-62.357V114.781
		c0-34.436,25.323-62.366,56.57-62.366h470.044c31.248,0,56.581,27.931,56.581,62.366V393z"/>
	<rect x="28.403" y="129.167" fill="#AA9A3D" width="583.195" height="249.444"/>
	<path fill="#386B62" d="M447.663,253.891c0-77.712-57.146-140.709-127.668-140.709c-70.496,0-127.659,62.997-127.659,140.709
		c0,77.715,57.163,140.711,127.659,140.711C390.517,394.602,447.663,331.605,447.663,253.891z"/>
	<path fill="#7BB4B5" d="M403.557,253.891c0-50.86-37.411-92.093-83.562-92.093c-46.146,0-83.557,41.233-83.557,92.093
		c0,50.861,37.411,92.1,83.557,92.1C366.146,345.99,403.557,304.752,403.557,253.891z"/>
	<path fill="#003B51" d="M359.615,253.891c0-24.118-17.738-43.665-39.62-43.665c-21.876,0-39.61,19.547-39.61,43.665
		c0,24.115,17.734,43.662,39.61,43.662C341.877,297.553,359.615,278.006,359.615,253.891z"/>
	<path fill="#FFFFFF" d="M352.98,241.414c0-12.865-9.459-23.287-21.116-23.287c-11.675,0-21.121,10.421-21.121,23.287
		c0,12.855,9.446,23.273,21.121,23.273C343.521,264.688,352.98,254.27,352.98,241.414z"/>
	<path fill="#B74356" d="M571.964,92.886c0,11.212-8.24,20.296-18.412,20.296h-44.563c-10.164,0-18.417-9.083-18.417-20.296l0,0
		c0-11.208,8.253-20.287,18.417-20.287h44.563C563.724,72.599,571.964,81.678,571.964,92.886L571.964,92.886z"/>
</g>
</svg>
