<?xml version="1.0" encoding="utf-8"?>
<!-- Generator: Adobe Illustrator 16.0.0, SVG Export Plug-In . SVG Version: 6.00 Build 0)  -->
<!DOCTYPE svg PUBLIC "-//W3C//DTD SVG 1.1//EN" "http://www.w3.org/Graphics/SVG/1.1/DTD/svg11.dtd">
<svg version="1.1" id="Layer_1" xmlns="http://www.w3.org/2000/svg" xmlns:xlink="http://www.w3.org/1999/xlink" x="0px" y="0px"
	 width="640px" height="480px" viewBox="0 0 640 480" enable-background="new 0 0 640 480" xml:space="preserve">
<g>
	<g>
		<g>
			<polygon fill="#E1D5B6" points="132.281,175.75 163.001,204.614 137.377,212.172 106.661,183.306 			"/>
			<polygon fill="#E1D5B6" points="310.006,123.319 340.713,152.185 315.099,159.742 284.385,130.875 			"/>
			<polygon fill="#E1D5B6" points="250.763,140.798 281.483,169.664 255.859,177.221 225.144,148.355 			"/>
			<polygon fill="#E1D5B6" points="191.527,158.27 222.238,187.139 196.619,194.697 165.899,165.834 			"/>
			<polygon fill="#E1D5B6" points="369.238,105.84 399.959,134.706 374.336,142.267 343.623,113.4 			"/>
			<path fill="#E1D5B6" d="M76.429,196.406l27.327,25.684l-15.398,4.542L76.762,201.92
				C75.899,200.082,75.847,198.167,76.429,196.406z"/>
			<polygon fill="#E1D5B6" points="487.721,70.894 518.445,99.755 492.816,107.316 462.105,78.45 			"/>
			<path fill="#E1D5B6" d="M535.506,66.586l6.449,13.763l-20.559-19.326C527.172,59.672,533.371,62.038,535.506,66.586z"/>
			<polygon fill="#E1D5B6" points="428.482,88.369 459.205,117.234 433.576,124.787 402.865,95.925 			"/>
			<path fill="#003B51" d="M487.721,70.894l32.91-9.707c0.254-0.08,0.504-0.102,0.766-0.163l20.559,19.326l5.145,10.952
				l-28.654,8.454L487.721,70.894z"/>
			<polygon fill="#003B51" points="462.105,78.45 492.816,107.316 459.205,117.234 428.482,88.369 			"/>
			<polygon fill="#003B51" points="402.865,95.925 433.576,124.787 399.959,134.706 369.238,105.84 			"/>
			<polygon fill="#003B51" points="343.623,113.4 374.336,142.267 340.713,152.185 310.006,123.319 			"/>
			<polygon fill="#003B51" points="284.385,130.875 315.099,159.742 281.483,169.664 250.763,140.798 			"/>
			<polygon fill="#003B51" points="225.144,148.355 255.859,177.221 222.238,187.139 191.527,158.27 			"/>
			<polygon fill="#003B51" points="165.899,165.834 196.619,194.697 163.001,204.614 132.281,175.75 			"/>
			<path fill="#003B51" d="M83.577,190.114l23.084-6.808l30.716,28.866l-33.622,9.918l-27.327-25.684
				C77.35,193.614,79.902,191.2,83.577,190.114z"/>
		</g>
		<g>
			<path fill="#003B51" d="M564.727,443.339c0,5.072-5.182,9.183-11.572,9.183H86.846c-6.39,0-11.572-4.11-11.572-9.183V198.862
				c0-5.07,5.183-9.176,11.572-9.176h466.308c6.391,0,11.572,4.106,11.572,9.176V443.339z"/>
			<polygon fill="#E1D5B6" points="501.188,189.686 485.092,225.23 512.424,225.23 528.527,189.686 			"/>
			<polygon fill="#E1D5B6" points="311.568,189.686 295.469,225.23 322.807,225.23 338.906,189.686 			"/>
			<polygon fill="#E1D5B6" points="374.773,189.686 358.678,225.23 386.014,225.23 402.111,189.686 			"/>
			<polygon fill="#E1D5B6" points="437.984,189.686 421.881,225.23 449.223,225.23 465.316,189.686 			"/>
			<polygon fill="#E1D5B6" points="248.362,189.686 232.264,225.23 259.601,225.23 275.7,189.686 			"/>
			<path fill="#E1D5B6" d="M562.621,193.603l-14.328,31.628h16.434v-26.368C564.727,196.902,563.932,195.093,562.621,193.603z"/>
			<polygon fill="#E1D5B6" points="121.951,189.686 105.852,225.23 133.188,225.23 149.287,189.686 			"/>
			<path fill="#E1D5B6" d="M75.274,198.862v14.683l10.775-23.795C80.041,190.076,75.274,194.012,75.274,198.862z"/>
			<polygon fill="#E1D5B6" points="185.156,189.686 169.057,225.23 196.394,225.23 212.493,189.686 			"/>
			<path fill="#003B51" d="M121.951,189.686H86.846c-0.274,0-0.526,0.049-0.797,0.064l-10.775,23.795v11.685h30.578L121.951,189.686
				z"/>
			<polygon fill="#003B51" points="149.287,189.686 133.188,225.23 169.057,225.23 185.156,189.686 			"/>
			<polygon fill="#003B51" points="212.493,189.686 196.394,225.23 232.264,225.23 248.362,189.686 			"/>
			<polygon fill="#003B51" points="275.7,189.686 259.601,225.23 295.469,225.23 311.568,189.686 			"/>
			<polygon fill="#003B51" points="338.906,189.686 322.807,225.23 358.678,225.23 374.773,189.686 			"/>
			<polygon fill="#003B51" points="402.111,189.686 386.014,225.23 421.881,225.23 437.984,189.686 			"/>
			<polygon fill="#003B51" points="465.316,189.686 449.223,225.23 485.092,225.23 501.188,189.686 			"/>
			<path fill="#003B51" d="M553.154,189.686h-24.627l-16.104,35.544h35.869l14.328-31.628
				C560.52,191.237,557.078,189.686,553.154,189.686z"/>
		</g>
		<path fill="#B74356" d="M109.234,207.456c0-5.138-5.254-9.305-11.733-9.305c-6.484,0-11.739,4.167-11.739,9.305
			c0,5.139,5.255,9.31,11.739,9.31C103.98,216.766,109.234,212.595,109.234,207.456z"/>
		<g>
			<g>
				<path fill="#E1D5B6" d="M530.814,291.624v-10.212H109.196v10.212h75.96v61.001h-75.96v10.211h421.618v-10.211H421.211v-61.001
					H530.814z M200.584,291.624h94.885v61.001h-94.885V291.624z M405.787,352.625h-94.892v-61.001h94.892V352.625z"/>
				<rect x="109.196" y="414.379" fill="#E1D5B6" width="421.618" height="10.212"/>
			</g>
			<rect x="109.234" y="256.84" fill="#7BB4B5" width="69.275" height="10.939"/>
		</g>
	</g>
</g>
</svg>
