<?xml version="1.0" encoding="utf-8"?>
<!-- Generator: Adobe Illustrator 16.0.0, SVG Export Plug-In . SVG Version: 6.00 Build 0)  -->
<!DOCTYPE svg PUBLIC "-//W3C//DTD SVG 1.1//EN" "http://www.w3.org/Graphics/SVG/1.1/DTD/svg11.dtd">
<svg version="1.1" id="Layer_1" xmlns="http://www.w3.org/2000/svg" xmlns:xlink="http://www.w3.org/1999/xlink" x="0px" y="0px"
	 width="612px" height="792px" viewBox="0 0 612 792" enable-background="new 0 0 612 792" xml:space="preserve">
<path fill="#fff" stroke="#C4473A" stroke-width="15" d="M252.756,396h111.308l-59.168-123.725L252.756,396z M305.092,94.906L21.769,194.614l44.767,371.202
	l238.857,131.279l240.086-133.053l44.753-371.192L305.092,94.906L305.092,94.906z M229.71,448.594l-34.736,86.904l-64.934,0.268
	l175.032-387.659l-0.335-0.731h-0.306l0.005-0.636l0.301,0.636h0.675l0.588-1.31v1.31h-0.593l-0.33,0.731l182.591,389.275
	l-62.51-1.372l-38.451-88.836l-82.107,0.392"/>
<path fill="#fff" stroke="#CCCCCC" stroke-width="4" d="M82.491,769.268v-61.975h8.018l37.925,49.926v-49.926h7.579v61.975h-8.018l-37.916-50.36v50.36H82.491z
	 M197.547,766.839c-4.997,1.907-10.385,2.863-16.166,2.863c-22.443,0-33.669-10.762-33.669-32.287
	c0-20.368,10.834-30.557,32.498-30.557c6.221,0,11.996,0.869,17.337,2.605v6.933c-5.341-2.022-10.834-3.036-16.467-3.036
	c-16.897,0-25.345,8.023-25.345,24.05c0,17.188,8.31,25.79,24.958,25.79c2.658,0,5.604-0.35,8.845-1.047v-21.057h8.014v25.742
	H197.547z M210.337,745.347v-38.049h8.013v38.049c0,11.9,5.924,17.858,17.772,17.858c11.843,0,17.767-5.958,17.767-17.858v-38.049
	h8.019v38.049c0,16.237-8.597,24.36-25.785,24.36S210.337,761.589,210.337,745.347z M284.222,707.293v55.477h32.421v6.498h-40.435
	v-61.975H284.222z M328.21,769.268h-8.32l30.811-70.146l30.814,70.146h-8.883l-8.018-19.503h-20.498l2.209-6.492h15.605
	l-11.574-28.086L328.21,769.268z M389.964,769.268v-61.975h26.436c11.791,0,17.682,4.958,17.682,14.864
	c0,8.066-5.762,14.033-17.289,17.896l21.275,29.209h-10.576l-19.713-27.865v-5.24c11.844-1.884,17.764-6.436,17.764-13.65
	c0-5.719-3.291-8.582-9.875-8.582h-17.686v55.343H389.964L389.964,769.268z M468.104,707.293v44.121
	c0,11.9-7.006,17.854-21.02,17.854v-6.498c8.67,0,13.006-3.792,13.006-11.355v-44.121H468.104L468.104,707.293z M482.405,767.102
	v-7.368c6.502,2.31,13.521,3.472,21.061,3.472c10.662,0,15.998-3.897,15.998-11.71c0-6.631-3.936-9.964-11.795-9.964h-7.975
	c-12.973,0-19.461-5.628-19.461-16.896c0-11.849,8.311-17.772,24.93-17.772c7.221,0,13.938,0.875,20.148,2.605v7.369
	c-6.215-2.314-12.928-3.477-20.148-3.477c-11.27,0-16.902,3.758-16.902,11.27c0,6.646,3.813,9.964,11.438,9.964h7.975
	c13.201,0,19.809,5.642,19.809,16.897c0,12.14-8.004,18.211-24.006,18.211C495.927,769.702,488.911,768.832,482.405,767.102
	L482.405,767.102z"/>
<path d="M84.523,767.24v-61.965h8.013l37.92,49.921v-49.921h7.587v61.965h-8.018l-37.92-50.36v50.36H84.523z M199.58,764.816
	c-4.997,1.907-10.385,2.863-16.166,2.863c-22.443,0-33.674-10.757-33.674-32.282c0-20.373,10.839-30.563,32.508-30.563
	c6.21,0,11.991,0.875,17.332,2.605v6.934c-5.341-2.022-10.834-3.036-16.467-3.036c-16.897,0-25.35,8.022-25.35,24.05
	c0,17.193,8.319,25.79,24.963,25.79c2.658,0,5.608-0.345,8.845-1.043v-21.062h8.013v25.743H199.58L199.58,764.816z M212.364,743.324
	v-38.054h8.013v38.049c0,11.9,5.924,17.858,17.772,17.858c11.848,0,17.771-5.958,17.771-17.858v-38.049h8.014v38.049
	c0,16.242-8.592,24.36-25.785,24.36S212.364,759.562,212.364,743.324L212.364,743.324z M286.25,705.271v55.472h32.416v6.498h-40.429
	v-61.97H286.25z M330.241,767.24h-8.324l30.814-70.146l30.816,70.146h-8.893l-8.02-19.503h-20.492l2.215-6.498h15.596l-11.57-28.084
	L330.241,767.24z M391.991,767.24v-61.965h26.436c11.791,0,17.676,4.953,17.676,14.86c0,8.061-5.756,14.033-17.283,17.896
	l21.275,29.208h-10.576l-19.713-27.86v-5.25c11.844-1.884,17.768-6.431,17.768-13.65c0-5.719-3.295-8.578-9.883-8.578h-17.682
	v55.339H391.991L391.991,767.24z"/>
<path fill="#A6120D" d="M470.132,705.271v44.121c0,11.905-7.006,17.854-21.02,17.854v-6.498c8.668,0,13.006-3.791,13.006-11.355
	v-44.121H470.132z M484.433,765.074v-7.368c6.502,2.305,13.516,3.472,21.061,3.472c10.658,0,15.994-3.901,15.994-11.704
	c0-6.642-3.932-9.965-11.791-9.965h-7.975c-12.973,0-19.461-5.637-19.461-16.901c0-11.849,8.305-17.772,24.926-17.772
	c7.225,0,13.938,0.875,20.152,2.602v7.373c-6.215-2.314-12.928-3.477-20.152-3.477c-11.266,0-16.902,3.758-16.902,11.27
	c0,6.641,3.811,9.964,11.441,9.964h7.975c13.201,0,19.809,5.638,19.809,16.901c0,12.136-8.004,18.208-24.012,18.208
	C497.954,767.676,490.935,766.805,484.433,765.074z"/>
</svg>
