<?xml version="1.0" encoding="utf-8"?>
<!-- Generator: Adobe Illustrator 16.0.0, SVG Export Plug-In . SVG Version: 6.00 Build 0)  -->
<!DOCTYPE svg PUBLIC "-//W3C//DTD SVG 1.1//EN" "http://www.w3.org/Graphics/SVG/1.1/DTD/svg11.dtd">
<svg version="1.1" id="Layer_1" xmlns="http://www.w3.org/2000/svg" xmlns:xlink="http://www.w3.org/1999/xlink" x="0px" y="0px"
	 width="640px" height="480px" viewBox="0 0 640 480" enable-background="new 0 0 640 480" xml:space="preserve">
<g>
	<polygon fill="#335E59" points="308.226,387.752 386.688,387.752 423.47,450.121 271.445,450.121 	"/>
	<path fill="#335E59" d="M162.56,118.777h369.787c10.409,0,18.922,7.971,18.922,17.714v249.363c0,9.738-8.52,17.712-18.922,17.712
		H162.56c-10.402,0-18.914-7.971-18.914-17.712V136.491C143.646,126.748,152.158,118.777,162.56,118.777z"/>
	<g>
		<ellipse fill="#71B8B0" cx="528.29" cy="387.91" rx="2.459" ry="2.298"/>
		<ellipse fill="#71B8B0" cx="518.702" cy="387.91" rx="2.453" ry="2.298"/>
		<ellipse fill="#71B8B0" cx="509.108" cy="387.91" rx="2.46" ry="2.298"/>
	</g>
	<path fill="#71B8B0" d="M121.792,431.272h451.328c5.538,0,10.066,4.239,10.066,9.427l0,0c0,5.183-4.528,9.422-10.066,9.422H121.792
		c-5.541,0-10.07-4.239-10.07-9.422l0,0C111.722,435.512,116.251,431.272,121.792,431.272z"/>
	<path fill="#335E59" d="M583.186,440.699c0,5.183-4.528,9.422-10.066,9.422H121.792c-5.541,0-10.07-4.239-10.07-9.422H583.186z"/>
	<rect x="156.2" y="129.109" fill="#D6FFFA" width="382.507" height="242.825"/>
</g>
<g>
	<polygon fill="#FFDC8F" points="215.9,23.601 441.203,23.601 479.006,58.989 479.006,23.601 479.006,371.934 215.9,371.934 	"/>
	<path fill="none" stroke="#FFFFFF" stroke-width="1.1999" stroke-miterlimit="22.9256" d="M432.204,270.655v43.538
		 M375.703,270.655v21.77 M261.503,270.655v68.291"/>
	<g>
		<path fill="#FFFFFF" stroke="#FFDC8F" stroke-width="0.5669" stroke-miterlimit="22.9256" d="M427.006,173.728
			c15.38,0,27.855,11.674,27.855,26.077c0,14.402-12.476,26.079-27.855,26.079c-15.39,0-27.857-11.677-27.857-26.079
			C399.148,185.403,411.616,173.728,427.006,173.728z"/>
		<path fill="#FFFFFF" stroke="#FFDC8F" stroke-width="0.5669" stroke-miterlimit="22.9256" d="M411.669,221.58
			c-3.994-2.47-7.275-5.88-9.471-9.898l24.808-11.877L411.669,221.58z"/>
		<path fill="#FFFFFF" stroke="#FFDC8F" stroke-width="0.5669" stroke-miterlimit="22.9256" d="M402.198,211.682
			c-1.954-3.563-3.05-7.596-3.05-11.877c0-8.337,4.177-15.763,10.684-20.536l17.174,20.536L402.198,211.682z"/>
		<path fill="#FFFFFF" stroke="#FFDC8F" stroke-width="0.5669" stroke-miterlimit="22.9256" d="M409.832,179.269
			c4.73-3.472,10.692-5.541,17.174-5.541v26.077L409.832,179.269z"/>
		<path fill="#FFFFFF" stroke="#FFDC8F" stroke-width="0.5669" stroke-miterlimit="22.9256" d="M427.006,173.728v26.077
			l19.851-18.29C441.803,176.707,434.774,173.728,427.006,173.728z"/>
	</g>
	<g>
		
			<rect x="240.049" y="230.314" fill="#FFAE00" stroke="#FFDC8F" stroke-width="0.5669" stroke-miterlimit="22.9256" width="127.816" height="11.188"/>
		
			<rect x="240.049" y="166.234" fill="#FFFFFF" stroke="#FFDC8F" stroke-width="0.5669" stroke-miterlimit="22.9256" width="22.724" height="64.082"/>
		
			<rect x="266.326" y="190.396" fill="#FFFFFF" stroke="#FFDC8F" stroke-width="0.5669" stroke-miterlimit="22.9256" width="22.717" height="39.919"/>
		
			<rect x="292.598" y="203.916" fill="#FFFFFF" stroke="#FFDC8F" stroke-width="0.5669" stroke-miterlimit="22.9256" width="22.724" height="26.398"/>
		
			<rect x="318.87" y="191.535" fill="#FFFFFF" stroke="#FFDC8F" stroke-width="0.5669" stroke-miterlimit="22.9256" width="22.724" height="38.78"/>
		
			<rect x="345.142" y="202.583" fill="#FFFFFF" stroke="#FFDC8F" stroke-width="0.5669" stroke-miterlimit="22.9256" width="22.724" height="27.732"/>
	</g>
	<rect x="400.92" y="230.314" fill="#FFAE00" width="11.467" height="11.188"/>
	<rect x="417.698" y="230.314" fill="#FFAE00" width="34.062" height="11.188"/>
	<g>
		<rect x="283.591" y="60.91" fill="#FFAE00" width="127.731" height="8.506"/>
		<rect x="240.049" y="82.175" fill="#FFAE00" width="214.813" height="8.504"/>
		<rect x="240.049" y="97.06" fill="#FFAE00" width="214.813" height="8.503"/>
		<rect x="240.049" y="111.942" fill="#FFAE00" width="214.813" height="8.503"/>
		<rect x="240.049" y="126.825" fill="#FFAE00" width="100.671" height="8.507"/>
		<polygon fill="#FFAE00" points="441.203,58.989 479.006,58.989 441.203,23.601 		"/>
	</g>
	<rect x="240.049" y="264.186" fill="#FFAE00" width="45.313" height="12.945"/>
	<rect x="296.702" y="264.186" fill="#FFAE00" width="45.316" height="12.945"/>
	<rect x="353.053" y="264.186" fill="#FFAE00" width="45.308" height="12.945"/>
	<rect x="409.554" y="264.186" fill="#FFAE00" width="45.308" height="12.945"/>
	<rect x="240.049" y="285.953" fill="#FFCD60" width="45.313" height="12.946"/>
	<rect x="240.049" y="307.725" fill="#FFEBBF" width="45.313" height="12.943"/>
	<rect x="240.049" y="329.494" fill="#FFFFFF" width="45.313" height="12.945"/>
	<rect x="353.053" y="285.953" fill="#FFCD60" width="45.308" height="12.946"/>
	<rect x="409.554" y="285.953" fill="#FFCD60" width="45.308" height="12.946"/>
	<rect x="409.554" y="307.725" fill="#FFDC8F" width="45.308" height="12.943"/>
</g>
<g>
	<path fill="#71B8B0" d="M472.32,339.024l-23.099,7.774l9.456-21.209l132.775-118.188c2.16-1.917,5.594-1.837,7.637,0.181
		l6.201,6.105c2.052,2.014,1.964,5.232-0.193,7.15L472.32,339.024z"/>
	<path fill="#335E59" d="M472.32,339.024l-23.099,7.774l16.931-15.072l136.037-121.092l3.102,3.053
		c2.052,2.014,1.964,5.232-0.187,7.15L472.32,339.024z"/>
	<path fill="#D6FFFA" d="M472.32,339.024l-23.099,7.774l9.456-21.209l127.017-113.06c5.664,3.967,10.142,8.448,13.643,13.435
		L472.32,339.024z"/>
	<path fill="#71B8B0" d="M472.32,339.024l-23.099,7.774l16.931-15.072l126.99-113.038c2.346,2.29,4.397,4.716,6.193,7.276
		L472.32,339.024z"/>
	<path fill="#FFD5C9" d="M472.32,339.024l-23.099,7.774l9.456-21.209l122.439-108.985c5.742,3.936,10.222,8.421,13.644,13.431
		L472.32,339.024z"/>
	<path fill="#FC6E4B" d="M472.32,339.024l-23.099,7.774l16.931-15.072l122.462-109.005c2.342,2.298,4.389,4.739,6.146,7.314
		L472.32,339.024z"/>
	<path fill="#D6FFFA" d="M472.32,339.024l-23.099,7.774l9.456-21.209c2.591,1.758,5.104,3.811,7.475,6.137
		C468.516,334.061,470.575,336.514,472.32,339.024z"/>
	<path fill="#71B8B0" d="M472.32,339.024l-23.099,7.774l16.931-15.072C468.516,334.061,470.575,336.514,472.32,339.024z"/>
	<path fill="#666666" d="M456.851,344.23l-7.63,2.568l3.128-7.008c0.854,0.58,1.684,1.259,2.465,2.03
		C455.596,342.588,456.277,343.401,456.851,344.23z"/>
</g>
<polyline fill="#FC6E4B" points="29.698,450.121 164.967,450.121 164.967,437.183 29.698,437.183 "/>
<path fill="#FC6E4B" d="M98.619,437.183h6.841v-13.073h-6.841h1.289v13.073H98.619z M91.783,437.183h6.836h-1.284v-13.073h1.284
	h-6.836V437.183z"/>
<path fill="#FC6E4B" d="M118.985,351.734l24.501-110.815l-13.398-2.596l-11.104,50.248v24.059l16.202-73.295l3.194,0.616
	l-19.396,87.728L118.985,351.734L118.985,351.734z M94.489,399.341l13.396,2.594l11.099-50.2v-24.057l-16.203,73.287l-3.193-0.615
	l19.397-87.721v-24.061L94.489,399.341z"/>
<path fill="#FC6E4B" d="M327.415,164.994l-5.092-11.881l-84.814,31.869v5.255l86.753-32.599l1.216,2.829l-87.969,33.054v5.254
	L327.415,164.994z M237.509,184.98l-89.907,33.781l5.092,11.882l84.816-31.868v-5.254l-86.753,32.598l-1.216-2.831l87.97-33.052
	L237.509,184.98L237.509,184.98z"/>
<path fill="#FC6E4B" d="M305.675,116.947c4.289-2.424,8.825-4.221,13.515-5.435l17.841,20.465
	c17.817-0.619,37.129,9.472,49.09,27.255c-12.956,6.118-26.334,13.028-39.845,20.662c-13.511,7.637-26.271,15.5-38.093,23.386
	c-11.237-18.189-11.785-38.888-2.899-53.362l-11.043-24.307C297.576,122.289,301.392,119.37,305.675,116.947z"/>
<path fill="#FC6E4B" d="M139.176,215.347c3.634,0,7.277,1.277,10.076,3.851c5.678,5.211,5.772,13.74,0.207,19.059
	c-2.819,2.691-6.547,4.044-10.283,4.044v-2.67c2.994,0,5.985-1.082,8.246-3.243c4.463-4.264,4.389-11.105-0.167-15.286
	c-2.246-2.063-5.165-3.09-8.079-3.09V215.347z M128.892,219.393c2.82-2.69,6.548-4.046,10.284-4.046v2.667
	c-2.993,0.003-5.987,1.087-8.244,3.246c-4.464,4.264-4.391,11.107,0.167,15.286c2.244,2.061,5.165,3.086,8.078,3.086v2.669
	c-3.636,0.002-7.27-1.281-10.076-3.849C123.421,233.244,123.326,224.707,128.892,219.393z"/>
<path fill="#FC6E4B" d="M98.619,398.774c7.951,0,14.398,6.032,14.398,13.476c0,7.441-6.449,13.477-14.398,13.477l0,0v-2.667l0,0
	c6.38,0,11.545-4.839,11.545-10.81c0-5.967-5.165-10.81-11.545-10.81l0,0V398.774L98.619,398.774z M98.619,425.727
	c-7.952,0-14.392-6.035-14.392-13.477c0-7.443,6.441-13.476,14.392-13.476v2.666c-6.376,0-11.546,4.843-11.546,10.81
	c0,5.971,5.17,10.81,11.546,10.81V425.727z"/>
</svg>
