<?xml version="1.0" encoding="utf-8"?>
<!-- Generator: Adobe Illustrator 16.0.0, SVG Export Plug-In . SVG Version: 6.00 Build 0)  -->
<!DOCTYPE svg PUBLIC "-//W3C//DTD SVG 1.1//EN" "http://www.w3.org/Graphics/SVG/1.1/DTD/svg11.dtd">
<svg version="1.1" id="Layer_1" xmlns="http://www.w3.org/2000/svg" xmlns:xlink="http://www.w3.org/1999/xlink" x="0px" y="0px"
	 width="640px" height="480px" viewBox="0 0 640 480" enable-background="new 0 0 640 480" xml:space="preserve">
<g>
	<g>
		<polygon fill="#335E59" points="297.313,385.872 387.116,385.872 429.203,452.949 255.221,452.949 		"/>
		<path fill="#335E59" d="M130.609,96.62h423.208c11.907,0,21.652,8.57,21.652,19.042v268.172c0,10.475-9.745,19.043-21.652,19.043
			H130.609c-11.906,0-21.651-8.568-21.651-19.043V115.661C108.959,105.188,118.701,96.62,130.609,96.62z"/>
		<g>
			<ellipse fill="#71B8B0" cx="549.178" cy="386.048" rx="2.813" ry="2.476"/>
			<ellipse fill="#71B8B0" cx="538.197" cy="386.048" rx="2.813" ry="2.476"/>
			<ellipse fill="#71B8B0" cx="527.219" cy="386.048" rx="2.811" ry="2.476"/>
		</g>
		<path fill="#71B8B0" d="M83.949,432.679h516.534c6.337,0,11.523,4.557,11.523,10.133l0,0c0,5.577-5.187,10.138-11.523,10.138
			H83.949c-6.339,0-11.522-4.561-11.522-10.138l0,0C72.426,437.235,77.608,432.679,83.949,432.679z"/>
		<path fill="#335E59" d="M612.005,442.812c0,5.577-5.188,10.138-11.524,10.138H83.949c-6.338,0-11.522-4.561-11.522-10.138H612.005
			z"/>
		<rect x="123.329" y="107.728" fill="#FFFDFA" width="437.77" height="261.143"/>
	</g>
	<path fill="#71B8B0" d="M338.075,145.251c3.339,0,6.699,0.169,10.071,0.505l4.56-13.19l31.623,8.455l-4.558,13.189
		c11.466,5.221,21.286,12.43,29.042,20.987l13.818-6.49l15.565,25.651l-13.818,6.486c3.762,10.433,5.106,21.613,3.655,32.907
		l14.991,4.01l-9.615,27.816l-14.988-4.009c-5.94,10.089-14.132,18.724-23.859,25.551l7.373,12.156l-29.157,13.687l-7.378-12.154
		c-8.742,2.442-17.95,3.726-27.325,3.721v-20.827c28.665,0.007,55.18-16.333,63.952-41.708c10.737-31.074-9.19-63.917-44.514-73.363
		c-6.469-1.733-13.01-2.553-19.438-2.553V145.251L338.075,145.251z M281.58,162.659l-7.376-12.154l29.156-13.688l7.384,12.155
		c8.742-2.442,17.95-3.726,27.333-3.721v20.825c-28.672-0.01-55.186,16.332-63.957,41.712c-10.739,31.069,9.19,63.912,44.51,73.359
		l0,0c6.47,1.729,13.015,2.551,19.446,2.554v20.827c-3.344,0-6.707-0.168-10.079-0.504l-4.558,13.189l-31.625-8.454l4.558-13.19
		c-11.473-5.225-21.281-12.431-29.038-20.987l-13.83,6.486l-15.557-25.651l13.82-6.489c-3.766-10.425-5.104-21.61-3.656-32.9
		l-14.992-4.01l9.616-27.819l14.989,4.009C263.664,178.118,271.853,169.484,281.58,162.659z"/>
	<g>
		<polygon fill="#FFAE00" points="90.272,107.93 123.427,65.068 335.361,191.921 302.21,234.78 		"/>
		<polygon fill="#FFEBBF" points="106.249,105.255 299.168,220.73 319.387,194.586 126.467,79.119 		"/>
		<path fill="#FFAE00" d="M58.894,18.207c21.891-8.689,48.259-7.458,69.571,5.301c32.583,19.504,41.028,58.548,18.853,87.216
			c-22.168,28.663-66.562,36.088-99.147,16.584c-21.316-12.763-32.298-33.877-31.137-54.984l33.364,19.977l17.759,10.621
			L87.5,94.715l19.35-8.219l1.583-18.848l1.585-18.839l-17.756-10.63L58.894,18.207z"/>
		<path fill="#FFAE00" d="M408.601,227.522c1.158-21.107-9.822-42.224-31.138-54.989c-32.585-19.5-76.974-12.074-99.146,16.596
			c-22.174,28.661-13.734,67.707,18.852,87.214c21.319,12.754,47.684,13.986,69.573,5.297l-33.367-19.972l-17.756-10.633
			l1.584-18.838l1.583-18.846l19.347-8.219l19.343-8.207l17.763,10.628L408.601,227.522z"/>
		<path fill="#FFEBBF" d="M393.509,206.249c-4.236-10.137-11.996-19.051-22.512-25.346c-27.34-16.359-64.574-10.131-83.174,13.917
			c-18.604,24.043-11.52,56.794,15.813,73.156c10.524,6.302,22.793,9.372,35.071,9.121l-35.05-20.981l4.152-49.339l50.645-21.509
			L393.509,206.249z"/>
		<path fill="#FFEBBF" d="M31.66,93.316c4.234,10.137,11.993,19.054,22.515,25.346c27.337,16.365,64.567,10.14,83.174-13.914
			c18.601-24.047,11.515-56.8-15.822-73.157c-10.516-6.297-22.792-9.375-35.069-9.117l35.05,20.983l-4.148,49.33l-50.646,21.51
			L31.66,93.316z"/>
	</g>
	<path fill="#D6FFFA" d="M478.176,246.33l-8.397-17.192l41.23-15.584l8.407,17.188c13.489-2.691,27.575-3.394,41.683-1.897v28.549
		c-41.109-5.919-82.814,13.792-98.888,49.239c-9.477,20.895-8.205,43.211,1.481,62.236h-55.93l-0.695-1.433l19.546-7.391
		c-3.74-14.485-4.107-29.756-0.669-44.881l-19.764-6.937l16.634-36.675l19.759,6.935
		C451.925,265.438,464.129,254.583,478.176,246.33z"/>
	<path fill="#D6FFFA" d="M123.468,279.163l-0.139-0.229V263.61l21.92-10.292l7.383,12.155c11.854-3.31,24.567-4.498,37.404-3.216
		l4.559-13.19l31.623,8.457l-4.558,13.19c11.469,5.22,21.285,12.431,29.044,20.985l13.818-6.49l15.565,25.651l-13.821,6.49
		c3.764,10.432,5.107,21.612,3.657,32.904l14.992,4.01l-5.048,14.604h-40.797c1.953-3.258,3.585-6.724,4.848-10.375
		c10.738-31.071-9.192-63.912-44.514-73.361c-29.52-7.892-60.441,3.058-76.074,25.007v-30.877L123.468,279.163z"/>
	<path fill="#FC6E4B" d="M445.851,224.072c9.462-0.005,18.99,1.649,28.005,5.066l6.833-8.999l21.568,12.671l-6.833,8.996
		c7.268,6.213,12.772,13.592,16.391,21.567l12.056-2.109l5.064,22.372l-12.056,2.111c0.134,8.583-1.748,17.25-5.749,25.443
		l10.22,6.006l-14.403,18.973l-10.225-6.006c-7.068,6.391-15.452,11.233-24.517,14.415l2.396,10.608l-25.432,4.452l-2.402-10.604
		l-0.919,0.005v-16.345c16.92-0.014,33.518-7.212,43.62-20.514c16.089-21.192,9.604-49.838-14.484-63.993
		c-8.966-5.266-19.105-7.783-29.136-7.771v-16.345H445.851z M419.498,228.529l-2.397-10.604l25.429-4.453l2.405,10.608l0.916-0.006
		v16.344c-16.913,0.012-33.508,7.209-43.608,20.516c-16.089,21.187-9.608,49.836,14.479,63.985l0,0
		c8.968,5.266,19.104,7.782,29.129,7.777v16.345c-9.458,0.009-18.985-1.647-28.001-5.065l-6.832,8.992L389.448,340.3l6.834-8.995
		c-7.271-6.211-12.775-13.588-16.394-21.563l-12.058,2.108l-5.063-22.375l12.06-2.111c-0.138-8.583,1.744-17.254,5.749-25.443
		l-10.225-6.006l14.408-18.973l10.225,6.006C402.05,236.558,410.433,231.712,419.498,228.529z"/>
</g>
</svg>
