<?xml version="1.0" encoding="utf-8"?>
<!-- Generator: Adobe Illustrator 16.0.0, SVG Export Plug-In . SVG Version: 6.00 Build 0)  -->
<!DOCTYPE svg PUBLIC "-//W3C//DTD SVG 1.1//EN" "http://www.w3.org/Graphics/SVG/1.1/DTD/svg11.dtd">
<svg version="1.1" id="Layer_1" xmlns="http://www.w3.org/2000/svg" xmlns:xlink="http://www.w3.org/1999/xlink" x="0px" y="0px"
	 width="640px" height="480px" viewBox="0 0 640 480" enable-background="new 0 0 640 480" xml:space="preserve">
<g>
	<polygon fill-rule="evenodd" clip-rule="evenodd" fill="#4D4D4D" points="201.538,293.9 277.93,293.9 313.735,358.182 
		165.731,358.182 	"/>
	<path fill-rule="evenodd" clip-rule="evenodd" fill="#46749C" d="M59.725,16.665h360.016c10.133,0,18.419,8.215,18.419,18.252
		v257.024c0,10.038-8.29,18.256-18.419,18.256H59.725c-10.13,0-18.42-8.214-18.42-18.256V34.917
		C41.305,24.878,49.594,16.665,59.725,16.665z"/>
	<g>
		<ellipse fill-rule="evenodd" clip-rule="evenodd" fill="#F5F5F5" cx="415.794" cy="294.062" rx="2.391" ry="2.371"/>
		<path fill-rule="evenodd" clip-rule="evenodd" fill="#F5F5F5" d="M406.457,291.691c1.316,0,2.388,1.063,2.388,2.373
			c0,1.308-1.071,2.368-2.388,2.368c-1.322,0-2.394-1.061-2.394-2.368C404.063,292.755,405.135,291.691,406.457,291.691z"/>
		<ellipse fill-rule="evenodd" clip-rule="evenodd" fill="#F5F5F5" cx="397.115" cy="294.062" rx="2.389" ry="2.371"/>
	</g>
	<path fill-rule="evenodd" clip-rule="evenodd" fill="#46749C" d="M20.029,338.754h439.408c5.392,0,9.804,4.372,9.804,9.715v0.004
		c0,5.341-4.412,9.709-9.804,9.709H20.029c-5.39,0-9.801-4.368-9.801-9.709v-0.004C10.228,343.126,14.639,338.754,20.029,338.754z"
		/>
	<path fill-rule="evenodd" clip-rule="evenodd" fill="#4D4D4D" d="M469.24,348.469c0,5.345-4.416,9.713-9.804,9.713H20.03
		c-5.391,0-9.804-4.368-9.804-9.713H469.24z"/>
	<rect x="53.532" y="27.311" fill-rule="evenodd" clip-rule="evenodd" fill="#ED7B5C" width="372.404" height="250.287"/>
	<g>
		<path fill="#FFFFFF" d="M53.53,150.823c64.229-54.645,136.816-26.199,206.236,1.024c60.999,23.92,119.479,46.844,166.17,9.046
			v8.376c-48.651,35.736-107.403,12.7-168.609-11.303c-69.055-27.08-141.332-55.411-203.797,1.674V150.823z"/>
		<g>
			<path fill-rule="evenodd" clip-rule="evenodd" fill="#FFFFFF" d="M140.479,115.102c-5.514-2.899-12.354-0.819-15.28,4.644
				c-2.925,5.462-0.826,12.243,4.685,15.141c5.513,2.898,12.353,0.822,15.278-4.643C148.087,124.781,145.99,118.001,140.479,115.102
				z"/>
			<path fill-rule="evenodd" clip-rule="evenodd" fill="#FFC445" d="M138.957,117.945c-3.929-2.067-8.803-0.585-10.889,3.307
				c-2.084,3.893-0.589,8.724,3.337,10.791c3.929,2.066,8.804,0.586,10.888-3.308C144.379,124.843,142.885,120.011,138.957,117.945z
				"/>
		</g>
		<g>
			<path fill-rule="evenodd" clip-rule="evenodd" fill="#FFFFFF" d="M343.467,171.3c-5.515-2.9-12.357-0.82-15.281,4.644
				c-2.923,5.462-0.826,12.242,4.688,15.14c5.51,2.9,12.35,0.821,15.274-4.644C351.075,180.979,348.978,174.199,343.467,171.3z"/>
			<path fill-rule="evenodd" clip-rule="evenodd" fill="#FFC445" d="M341.943,174.144c-3.927-2.067-8.802-0.586-10.887,3.308
				c-2.088,3.892-0.592,8.722,3.338,10.789c3.926,2.066,8.803,0.586,10.885-3.308C347.362,181.041,345.872,176.208,341.943,174.144z
				"/>
		</g>
		<g>
			<path fill-rule="evenodd" clip-rule="evenodd" fill="#FFC445" d="M250.259,143.43c-3.795-1.998-8.506-0.565-10.52,3.197
				c-2.016,3.762-0.57,8.429,3.225,10.428c3.796,1.993,8.507,0.565,10.521-3.199C255.499,150.094,254.054,145.427,250.259,143.43z"
				/>
			<polygon fill="#FFC445" points="268.698,105.236 221.383,193.595 224.524,195.248 271.838,106.889 			"/>
			<path fill-rule="evenodd" clip-rule="evenodd" fill="#FFC445" d="M273.915,99.25c-3.794-1.996-8.505-0.565-10.521,3.198
				c-2.014,3.762-0.57,8.431,3.227,10.426c3.796,1.999,8.507,0.566,10.521-3.196C279.155,105.915,277.712,101.247,273.915,99.25z"/>
			<path fill-rule="evenodd" clip-rule="evenodd" fill="#FFC445" d="M226.603,187.609c-3.796-1.998-8.508-0.565-10.523,3.197
				c-2.013,3.762-0.57,8.428,3.227,10.426c3.796,1.997,8.508,0.566,10.521-3.197C231.843,194.274,230.398,189.606,226.603,187.609z"
				/>
		</g>
		<g>
			<path fill-rule="evenodd" clip-rule="evenodd" fill="#E3E2E0" d="M282.96,135.02l16.406,12.174
				c2.243,1.663,14.61,7.564,16.473,5.49c1.862-2.068-5.992-10.169-8.268-11.788l-12.813-8.468
				C287.415,127.57,281.156,133.68,282.96,135.02z"/>
			<path fill-rule="evenodd" clip-rule="evenodd" fill="#FFFDFA" d="M274.948,99.655l16.64,18.72
				c-0.503-4.186,5.367-6.71,8.757-3.687c-1.108-4.219,4.217-7.044,7.834-4.897c-0.378-4.055,5.588-6.349,8.683-2.891l14.185,15.845
				c20.898,23.345-11.25,40.499-23.63,27.05l-40.071-43.632C262.273,100.652,270.903,95.013,274.948,99.655z"/>
			<path fill-rule="evenodd" clip-rule="evenodd" fill="#E3E2E0" d="M313.381,115.13c0,0-2.75-3.198-5.206-6.028
				c-0.019,0.223-0.019,0.452,0.003,0.688c-0.316-0.189-0.647-0.337-0.989-0.453C309.966,111.973,313.381,115.13,313.381,115.13
				L313.381,115.13z M298.832,125.813v-0.019l0.088,0.104L298.832,125.813L298.832,125.813z M298.832,113.797v-0.05
				c0.536,0.218,1.049,0.528,1.513,0.941c-0.072-0.28-0.116-0.554-0.135-0.822c2.745,3.108,6.128,6.971,6.128,6.971
				S301.703,116.576,298.832,113.797z M298.832,113.747v0.05l-0.085-0.084L298.832,113.747L298.832,113.747z M298.832,125.794v0.019
				c-0.688-0.69-5.294-5.31-7.245-7.438c0.033,0.034,0.023-0.016-0.011-0.122c-0.035-0.373-0.017-0.732,0.042-1.074
				C294.137,120.102,298.193,125.018,298.832,125.794z"/>
		</g>
	</g>
	<rect x="409.926" y="133.856" fill-rule="evenodd" clip-rule="evenodd" fill="#4D4D4D" width="198.856" height="280.901"/>
	<path fill-rule="evenodd" clip-rule="evenodd" fill="#FFFFFF" d="M418.569,137.449h184.635v273.719H418.569v-12.299l0,0
		c1.19,0,2.165-0.965,2.165-2.146v-8.23c0-1.178-0.975-2.145-2.165-2.145v-5.679l0,0c1.19,0,2.165-0.965,2.165-2.146v-8.23
		c0-1.182-0.975-2.146-2.165-2.146v-5.68l0,0c1.19,0,2.165-0.965,2.165-2.144v-8.23c0-1.183-0.975-2.146-2.165-2.146v-5.678l0,0
		c1.19,0,2.165-0.967,2.165-2.146v-8.23c0-1.182-0.975-2.146-2.165-2.146v-5.678l0,0c1.19,0,2.165-0.967,2.165-2.147v-8.229
		c0-1.183-0.975-2.146-2.165-2.146v-5.68l0,0c1.19,0,2.165-0.962,2.165-2.146v-8.228c0-1.181-0.975-2.149-2.165-2.149v-5.674l0,0
		c1.19,0,2.165-0.968,2.165-2.149v-8.228c0-1.182-0.975-2.147-2.165-2.147v-5.679l0,0c1.19,0,2.165-0.968,2.165-2.147v-8.229
		c0-1.181-0.975-2.145-2.165-2.145v-5.679l0,0c1.19,0,2.165-0.964,2.165-2.145v-8.231c0-1.181-0.975-2.145-2.165-2.145v-5.676l0,0
		c1.19,0,2.165-0.967,2.165-2.149v-8.229c0-1.182-0.975-2.148-2.165-2.148v-5.677l0,0c1.19,0,2.165-0.966,2.165-2.145v-8.232
		c0-1.18-0.975-2.145-2.165-2.145v-5.679l0,0c1.19,0,2.165-0.966,2.165-2.146v-8.228c0-1.179-0.975-2.146-2.165-2.146v-5.678l0,0
		c1.19,0,2.165-0.965,2.165-2.148v-8.229c0-1.179-0.975-2.147-2.165-2.147v-5.678l0,0c1.19,0,2.165-0.965,2.165-2.146v-8.229
		c0-1.179-0.975-2.146-2.165-2.146V137.449L418.569,137.449z M418.569,149.744L418.569,149.744L418.569,149.744z M418.569,167.944
		L418.569,167.944L418.569,167.944z M418.569,186.146L418.569,186.146L418.569,186.146z M418.569,204.346L418.569,204.346
		L418.569,204.346z M418.569,222.544L418.569,222.544L418.569,222.544z M418.569,240.747L418.569,240.747L418.569,240.747z
		 M418.569,258.946L418.569,258.946L418.569,258.946z M418.569,277.146L418.569,277.146L418.569,277.146z M418.569,295.345
		L418.569,295.345L418.569,295.345z M418.569,313.547L418.569,313.547L418.569,313.547z M418.569,331.748L418.569,331.748
		L418.569,331.748z M418.569,349.947L418.569,349.947L418.569,349.947z M418.569,368.147L418.569,368.147L418.569,368.147z
		 M418.569,386.348 M411.937,137.449h6.633v12.295l0,0c-1.195,0-2.168,0.967-2.168,2.146v8.229c0,1.181,0.973,2.146,2.168,2.146
		v5.678l0,0c-1.195,0-2.168,0.969-2.168,2.147v8.229c0,1.183,0.973,2.148,2.168,2.148v5.678l0,0c-1.195,0-2.168,0.967-2.168,2.146
		v8.228c0,1.181,0.973,2.146,2.168,2.146v5.679l0,0c-1.195,0-2.168,0.964-2.168,2.145v8.232c0,1.179,0.973,2.145,2.168,2.145v5.677
		l0,0c-1.195,0-2.168,0.966-2.168,2.148v8.229c0,1.183,0.973,2.149,2.168,2.149v5.676l0,0c-1.195,0-2.168,0.964-2.168,2.145v8.231
		c0,1.181,0.973,2.145,2.168,2.145v5.679l0,0c-1.195,0-2.168,0.964-2.168,2.145v8.229c0,1.18,0.973,2.147,2.168,2.147v5.679l0,0
		c-1.195,0-2.168,0.966-2.168,2.147v8.228c0,1.182,0.973,2.149,2.168,2.149v5.674l0,0c-1.195,0-2.168,0.969-2.168,2.149v8.228
		c0,1.184,0.973,2.146,2.168,2.146v5.68l0,0c-1.195,0-2.168,0.964-2.168,2.146v8.229c0,1.181,0.973,2.147,2.168,2.147v5.678l0,0
		c-1.195,0-2.168,0.964-2.168,2.146v8.23c0,1.179,0.973,2.146,2.168,2.146v5.678l0,0c-1.195,0-2.168,0.964-2.168,2.146v8.23
		c0,1.179,0.973,2.144,2.168,2.144v5.68l0,0c-1.195,0-2.168,0.964-2.168,2.146v8.23c0,1.181,0.973,2.146,2.168,2.146v5.679l0,0
		c-1.195,0-2.168,0.967-2.168,2.145v8.23c0,1.182,0.973,2.146,2.168,2.146v12.299h-6.633V137.449L411.937,137.449z M418.569,162.266
		L418.569,162.266L418.569,162.266z M418.569,180.469L418.569,180.469L418.569,180.469z M418.569,198.667L418.569,198.667
		L418.569,198.667z M418.569,216.867L418.569,216.867L418.569,216.867z M418.569,235.07L418.569,235.07L418.569,235.07z
		 M418.569,253.268L418.569,253.268L418.569,253.268z M418.569,271.468L418.569,271.468L418.569,271.468z M418.569,289.671
		L418.569,289.671L418.569,289.671z M418.569,307.867L418.569,307.867L418.569,307.867z M418.569,326.07L418.569,326.07
		L418.569,326.07z M418.569,344.27L418.569,344.27L418.569,344.27z M418.569,362.468L418.569,362.468L418.569,362.468z
		 M418.569,380.669L418.569,380.669L418.569,380.669z M418.569,398.869"/>
	
		<path fill-rule="evenodd" clip-rule="evenodd" fill="none" stroke="#CCCCCC" stroke-width="1.1999" stroke-linecap="round" stroke-linejoin="round" stroke-miterlimit="22.9256" d="
		M526.438,249.622c-28.529,6.371-42.416-43.337-0.691-54.759c43.438-11.889,63.774,50.842,33.323,70.314
		c-20.285,12.972-51.044,4.992-72.537,13.593c-19.359,7.743-29.767,32.719-17.446,50.766c7.698,11.277,22.976,17.489,38.998,12.49
		c17.185-5.362,25.049-21.82,13.638-43.416c-11.412-21.594-47.341-2.351-36.638,20.309c9.851,20.855,35.301,2.149,25.985-11.345"/>
	<g>
		<g>
			<path fill-rule="evenodd" clip-rule="evenodd" fill="#ED7B5C" d="M417.226,152.016H399.59c-0.735,0-1.338,0.596-1.338,1.328l0,0
				c0,0.733,0.603,1.332,1.338,1.332h17.636c0.742,0,1.344-0.598,1.344-1.332l0,0C418.569,152.612,417.968,152.016,417.226,152.016z
				"/>
			<path fill-rule="evenodd" clip-rule="evenodd" fill="#ED7B5C" d="M417.226,157.336H399.59c-0.735,0-1.338,0.598-1.338,1.331l0,0
				c0,0.732,0.603,1.33,1.338,1.33h17.636c0.742,0,1.344-0.598,1.344-1.33l0,0C418.569,157.934,417.968,157.336,417.226,157.336z"/>
		</g>
		<g>
			<path fill-rule="evenodd" clip-rule="evenodd" fill="#ED7B5C" d="M417.226,170.193H399.59c-0.735,0-1.338,0.596-1.338,1.33l0,0
				c0,0.732,0.603,1.331,1.338,1.331h17.636c0.742,0,1.344-0.599,1.344-1.331l0,0C418.569,170.789,417.968,170.193,417.226,170.193z
				"/>
			<path fill-rule="evenodd" clip-rule="evenodd" fill="#ED7B5C" d="M417.226,175.514H399.59c-0.735,0-1.338,0.597-1.338,1.331l0,0
				c0,0.733,0.603,1.33,1.338,1.33h17.636c0.742,0,1.344-0.596,1.344-1.33l0,0C418.569,176.111,417.968,175.514,417.226,175.514z"/>
		</g>
		<g>
			<path fill-rule="evenodd" clip-rule="evenodd" fill="#ED7B5C" d="M417.226,188.372H399.59c-0.735,0-1.338,0.596-1.338,1.328l0,0
				c0,0.733,0.603,1.332,1.338,1.332h17.636c0.742,0,1.344-0.599,1.344-1.332l0,0C418.569,188.968,417.968,188.372,417.226,188.372z
				"/>
			<path fill-rule="evenodd" clip-rule="evenodd" fill="#ED7B5C" d="M417.226,193.692H399.59c-0.735,0-1.338,0.598-1.338,1.33l0,0
				c0,0.733,0.603,1.331,1.338,1.331h17.636c0.742,0,1.344-0.598,1.344-1.331l0,0C418.569,194.291,417.968,193.692,417.226,193.692z
				"/>
		</g>
		<g>
			<path fill-rule="evenodd" clip-rule="evenodd" fill="#ED7B5C" d="M417.226,206.552H399.59c-0.735,0-1.338,0.596-1.338,1.328l0,0
				c0,0.731,0.603,1.332,1.338,1.332h17.636c0.742,0,1.344-0.6,1.344-1.332l0,0C418.569,207.148,417.968,206.552,417.226,206.552z"
				/>
			<path fill-rule="evenodd" clip-rule="evenodd" fill="#ED7B5C" d="M417.226,211.87H399.59c-0.735,0-1.338,0.599-1.338,1.333l0,0
				c0,0.731,0.603,1.331,1.338,1.331h17.636c0.742,0,1.344-0.6,1.344-1.331l0,0C418.569,212.469,417.968,211.87,417.226,211.87z"/>
		</g>
		<g>
			<path fill-rule="evenodd" clip-rule="evenodd" fill="#ED7B5C" d="M417.226,224.727H399.59c-0.735,0-1.338,0.599-1.338,1.332l0,0
				c0,0.731,0.603,1.33,1.338,1.33h17.636c0.742,0,1.344-0.599,1.344-1.33l0,0C418.569,225.326,417.968,224.727,417.226,224.727z"/>
			<path fill-rule="evenodd" clip-rule="evenodd" fill="#ED7B5C" d="M417.226,230.05H399.59c-0.735,0-1.338,0.596-1.338,1.33l0,0
				c0,0.732,0.603,1.332,1.338,1.332h17.636c0.742,0,1.344-0.599,1.344-1.332l0,0C418.569,230.646,417.968,230.05,417.226,230.05z"
				/>
		</g>
		<g>
			<path fill-rule="evenodd" clip-rule="evenodd" fill="#ED7B5C" d="M417.226,242.907H399.59c-0.735,0-1.338,0.597-1.338,1.329l0,0
				c0,0.733,0.603,1.33,1.338,1.33h17.636c0.742,0,1.344-0.597,1.344-1.33l0,0C418.569,243.504,417.968,242.907,417.226,242.907z"/>
			<path fill-rule="evenodd" clip-rule="evenodd" fill="#ED7B5C" d="M417.226,248.229H399.59c-0.735,0-1.338,0.595-1.338,1.328l0,0
				c0,0.734,0.603,1.33,1.338,1.33h17.636c0.742,0,1.344-0.596,1.344-1.33l0,0C418.569,248.824,417.968,248.229,417.226,248.229z"/>
		</g>
		<g>
			<path fill-rule="evenodd" clip-rule="evenodd" fill="#ED7B5C" d="M417.226,261.086H399.59c-0.735,0-1.338,0.597-1.338,1.329l0,0
				c0,0.734,0.603,1.33,1.338,1.33h17.636c0.742,0,1.344-0.596,1.344-1.33l0,0C418.569,261.683,417.968,261.086,417.226,261.086z"/>
			<path fill-rule="evenodd" clip-rule="evenodd" fill="#ED7B5C" d="M417.226,266.409H399.59c-0.735,0-1.338,0.596-1.338,1.326l0,0
				c0,0.733,0.603,1.333,1.338,1.333h17.636c0.742,0,1.344-0.6,1.344-1.333l0,0C418.569,267.005,417.968,266.409,417.226,266.409z"
				/>
		</g>
		<g>
			<path fill-rule="evenodd" clip-rule="evenodd" fill="#ED7B5C" d="M417.226,279.266H399.59c-0.735,0-1.338,0.598-1.338,1.328l0,0
				c0,0.732,0.603,1.332,1.338,1.332h17.636c0.742,0,1.344-0.6,1.344-1.332l0,0C418.569,279.863,417.968,279.266,417.226,279.266z"
				/>
			<path fill-rule="evenodd" clip-rule="evenodd" fill="#ED7B5C" d="M417.226,284.587H399.59c-0.735,0-1.338,0.597-1.338,1.329l0,0
				c0,0.731,0.603,1.33,1.338,1.33h17.636c0.742,0,1.344-0.599,1.344-1.33l0,0C418.569,285.184,417.968,284.587,417.226,284.587z"/>
		</g>
		<g>
			<path fill-rule="evenodd" clip-rule="evenodd" fill="#ED7B5C" d="M417.226,297.442H399.59c-0.735,0-1.338,0.601-1.338,1.329l0,0
				c0,0.733,0.603,1.331,1.338,1.331h17.636c0.742,0,1.344-0.598,1.344-1.331l0,0C418.569,298.043,417.968,297.442,417.226,297.442z
				"/>
			<path fill-rule="evenodd" clip-rule="evenodd" fill="#ED7B5C" d="M417.226,302.765H399.59c-0.735,0-1.338,0.597-1.338,1.327l0,0
				c0,0.735,0.603,1.33,1.338,1.33h17.636c0.742,0,1.344-0.595,1.344-1.33l0,0C418.569,303.361,417.968,302.765,417.226,302.765z"/>
		</g>
		<g>
			<path fill-rule="evenodd" clip-rule="evenodd" fill="#ED7B5C" d="M417.226,315.62H399.59c-0.735,0-1.338,0.597-1.338,1.329l0,0
				c0,0.733,0.603,1.332,1.338,1.332h17.636c0.742,0,1.344-0.599,1.344-1.332l0,0C418.569,316.217,417.968,315.62,417.226,315.62z"
				/>
			<path fill-rule="evenodd" clip-rule="evenodd" fill="#ED7B5C" d="M417.226,320.944H399.59c-0.735,0-1.338,0.595-1.338,1.325l0,0
				c0,0.737,0.603,1.333,1.338,1.333h17.636c0.742,0,1.344-0.596,1.344-1.333l0,0C418.569,321.539,417.968,320.944,417.226,320.944z
				"/>
		</g>
		<g>
			<path fill-rule="evenodd" clip-rule="evenodd" fill="#ED7B5C" d="M417.226,333.8H399.59c-0.735,0-1.338,0.598-1.338,1.328l0,0
				c0,0.733,0.603,1.332,1.338,1.332h17.636c0.742,0,1.344-0.599,1.344-1.332l0,0C418.569,334.397,417.968,333.8,417.226,333.8z"/>
			<path fill-rule="evenodd" clip-rule="evenodd" fill="#ED7B5C" d="M417.226,339.122H399.59c-0.735,0-1.338,0.597-1.338,1.328l0,0
				c0,0.733,0.603,1.332,1.338,1.332h17.636c0.742,0,1.344-0.599,1.344-1.332l0,0C418.569,339.719,417.968,339.122,417.226,339.122z
				"/>
		</g>
		<g>
			<path fill-rule="evenodd" clip-rule="evenodd" fill="#ED7B5C" d="M417.226,351.979H399.59c-0.735,0-1.338,0.599-1.338,1.329l0,0
				c0,0.731,0.603,1.331,1.338,1.331h17.636c0.742,0,1.344-0.6,1.344-1.331l0,0C418.569,352.577,417.968,351.979,417.226,351.979z"
				/>
			<path fill-rule="evenodd" clip-rule="evenodd" fill="#ED7B5C" d="M417.226,357.3H399.59c-0.735,0-1.338,0.599-1.338,1.329l0,0
				c0,0.732,0.603,1.331,1.338,1.331h17.636c0.742,0,1.344-0.599,1.344-1.331l0,0C418.569,357.898,417.968,357.3,417.226,357.3z"/>
		</g>
		<g>
			<path fill-rule="evenodd" clip-rule="evenodd" fill="#ED7B5C" d="M417.226,370.156H399.59c-0.735,0-1.338,0.598-1.338,1.328l0,0
				c0,0.734,0.603,1.333,1.338,1.333h17.636c0.742,0,1.344-0.599,1.344-1.333l0,0C418.569,370.754,417.968,370.156,417.226,370.156z
				"/>
			<path fill-rule="evenodd" clip-rule="evenodd" fill="#ED7B5C" d="M417.226,375.478H399.59c-0.735,0-1.338,0.599-1.338,1.33l0,0
				c0,0.732,0.603,1.33,1.338,1.33h17.636c0.742,0,1.344-0.598,1.344-1.33l0,0C418.569,376.076,417.968,375.478,417.226,375.478z"/>
		</g>
		<g>
			<path fill-rule="evenodd" clip-rule="evenodd" fill="#ED7B5C" d="M417.226,388.334H399.59c-0.735,0-1.338,0.598-1.338,1.331l0,0
				c0,0.729,0.603,1.329,1.338,1.329h17.636c0.742,0,1.344-0.6,1.344-1.329l0,0C418.569,388.932,417.968,388.334,417.226,388.334z"
				/>
			<path fill-rule="evenodd" clip-rule="evenodd" fill="#ED7B5C" d="M417.226,393.657H399.59c-0.735,0-1.338,0.595-1.338,1.328l0,0
				c0,0.733,0.603,1.33,1.338,1.33h17.636c0.742,0,1.344-0.597,1.344-1.33l0,0C418.569,394.252,417.968,393.657,417.226,393.657z"/>
		</g>
	</g>
	<g>
		<polygon fill-rule="evenodd" clip-rule="evenodd" fill="#FADDDA" points="608.175,174.197 540.109,241.655 526.976,249.368 
			534.755,236.35 602.823,168.896 		"/>
		<path fill-rule="evenodd" clip-rule="evenodd" fill="#2E93DB" d="M633.762,138.229c1.331-1.317,3.622-1.202,5.095,0.256l0,0
			c1.473,1.459,1.586,3.73,0.261,5.049l-30.942,30.663l-5.352-5.302L633.762,138.229z"/>
		<path fill-rule="evenodd" clip-rule="evenodd" fill="#7BA9D1" d="M536.54,238.115l96.401-95.538l1.788,1.774l-96.401,95.539
			C536.883,240.211,536.248,239.589,536.54,238.115z"/>
		<path fill-rule="evenodd" clip-rule="evenodd" fill="#46749C" d="M536.54,238.115c-1.449,0.359-2.131-0.373-1.785-1.765
			l96.406-95.539l1.78,1.766L536.54,238.115z"/>
		<path fill-rule="evenodd" clip-rule="evenodd" fill="#91BDE3" d="M540.109,241.655c-1.516,0.277-2.101-0.317-1.781-1.765
			l96.401-95.539l1.782,1.765L540.109,241.655z"/>
		<path fill-rule="evenodd" clip-rule="evenodd" fill="#0A1420" d="M532.996,245.469l-6.021,3.899l3.934-5.968
			c0.405,0.264,0.793,0.57,1.149,0.928C532.418,244.683,532.729,245.064,532.996,245.469z"/>
		<polygon fill-rule="evenodd" clip-rule="evenodd" fill="#ED7B5C" points="628.853,150.174 627.064,148.399 632.941,142.577 
			634.729,144.351 		"/>
		<polygon fill-rule="evenodd" clip-rule="evenodd" fill="#CC6143" points="627.064,148.399 625.281,146.633 631.161,140.812 
			632.941,142.577 		"/>
		<polygon fill-rule="evenodd" clip-rule="evenodd" fill="#FA987D" points="630.636,151.938 628.853,150.174 634.729,144.351 
			636.512,146.116 		"/>
	</g>
	<g>
		<rect x="80.199" y="231.072" fill-rule="evenodd" clip-rule="evenodd" fill="#4D4D4D" width="24.393" height="24.176"/>
		<rect x="120.855" y="231.072" fill-rule="evenodd" clip-rule="evenodd" fill="#46749C" width="24.392" height="24.176"/>
		<rect x="161.511" y="231.072" fill-rule="evenodd" clip-rule="evenodd" fill="#A2C9EB" width="24.392" height="24.176"/>
		<rect x="202.167" y="231.072" fill-rule="evenodd" clip-rule="evenodd" fill="#FA9891" width="24.393" height="24.176"/>
		<rect x="242.822" y="231.072" fill-rule="evenodd" clip-rule="evenodd" fill="#FFFFFF" width="24.394" height="24.176"/>
		<rect x="283.478" y="231.072" fill-rule="evenodd" clip-rule="evenodd" fill="#FFEBC2" width="24.394" height="24.176"/>
		<rect x="324.135" y="231.072" fill-rule="evenodd" clip-rule="evenodd" fill="#FFD47F" width="24.392" height="24.176"/>
		<rect x="364.79" y="231.072" fill-rule="evenodd" clip-rule="evenodd" fill="#CCCCCC" width="24.394" height="24.176"/>
	</g>
</g>
</svg>
