<?xml version="1.0" encoding="utf-8"?>
<!-- Generator: Adobe Illustrator 16.0.0, SVG Export Plug-In . SVG Version: 6.00 Build 0)  -->
<!DOCTYPE svg PUBLIC "-//W3C//DTD SVG 1.1//EN" "http://www.w3.org/Graphics/SVG/1.1/DTD/svg11.dtd">
<svg version="1.1" id="Layer_1" xmlns="http://www.w3.org/2000/svg" xmlns:xlink="http://www.w3.org/1999/xlink" x="0px" y="0px"
	 width="640px" height="480px" viewBox="0 0 640 480" enable-background="new 0 0 640 480" xml:space="preserve">
<g>
	<g>
		<g>
			<polygon fill="#FFEBBF" points="84.83,140.423 314.461,15.363 324.609,31.122 94.979,156.185 			"/>
			<polygon fill="#FFEBBF" points="544.093,140.423 314.461,15.363 304.312,31.122 533.941,156.185 			"/>
		</g>
		<g>
			<rect x="409.992" y="0.818" fill="#FFEBBF" width="18.123" height="82.279"/>
			<rect x="475.039" y="0.818" fill="#FFEBBF" width="18.124" height="119.419"/>
			<rect x="409.99" y="0.818" fill="#FFEBBF" width="83.173" height="16.668"/>
		</g>
	</g>
	<g>
		<rect x="99.039" y="203.704" fill="#335E59" width="430.838" height="180.095"/>
		<rect x="110.725" y="216.009" fill="#88C9C1" width="407.473" height="155.485"/>
		<path fill="#335E59" d="M469.175,203.704h60.702v55.832C496.352,259.535,469.175,234.537,469.175,203.704z"/>
		<path fill="#335E59" d="M159.75,383.799H99.041v-55.83C132.569,327.969,159.75,352.965,159.75,383.799z"/>
		<path fill="#335E59" d="M314.461,352.285c35.054,0,63.646-26.299,63.646-58.533c0-32.236-28.592-58.531-63.646-58.531
			c-35.055,0-63.646,26.294-63.646,58.531C250.816,325.986,279.406,352.285,314.461,352.285z"/>
		<text transform="matrix(1.0874 0 0 1 117.5601 261.1611)" fill="#335E59" font-family="'Arial-BoldMT'" font-size="43.3784">100</text>
		<text transform="matrix(1.0874 0 0 1 432.7422 365.8232)" fill="#335E59" font-family="'Arial-BoldMT'" font-size="43.3784">100</text>
		<path fill="#88C9C1" d="M324.276,257.596c3.398,0.869,6.231,2.287,8.511,4.273c3.152,2.773,5.167,6.479,6.043,11.119
			l-12.764,1.535c-0.345-1.641-0.94-3.041-1.79-4.205V257.596L324.276,257.596z M324.276,286.424
			c5.782,1.818,9.865,4.031,12.229,6.633c2.926,3.197,4.392,7.299,4.392,12.32c0,5.592-1.845,10.314-5.515,14.143
			c-2.839,2.973-6.547,5.041-11.106,6.238v-11.049c0.693-0.453,1.324-0.986,1.893-1.6c1.587-1.727,2.381-3.742,2.381-6.068
			c0-2.076-0.672-3.848-2-5.355c-0.587-0.668-1.348-1.266-2.274-1.793L324.276,286.424L324.276,286.424z M312.702,315.672v-19.434
			c-1.137-0.297-2.222-0.625-3.253-0.979v-14.039c0.897,0.689,1.981,1.285,3.253,1.793v-16.059c-1.247,0.383-2.33,0.943-3.253,1.67
			v-11.311c1.039-0.215,2.126-0.373,3.253-0.482v-4.592h7.304v4.592c1.513,0.172,2.936,0.428,4.271,0.764v12.725
			c-1.042-1.434-2.464-2.508-4.271-3.221v18.131c1.513,0.377,2.936,0.775,4.271,1.195v13.469c-1.158-0.664-2.582-1.219-4.271-1.658
			v18.086c1.62-0.27,3.044-0.811,4.271-1.611v11.049c-1.35,0.352-2.771,0.631-4.271,0.828v8.68h-7.304v-8.459
			c-1.124-0.127-2.21-0.303-3.253-0.529v-12.73C310.463,314.451,311.549,315.162,312.702,315.672z M309.449,295.26
			c-4.959-1.689-8.713-3.98-11.264-6.893c-3.068-3.516-4.615-7.773-4.615-12.779c0-5.072,1.74-9.33,5.218-12.783
			c2.814-2.779,6.364-4.605,10.661-5.488v11.311c-0.556,0.434-1.052,0.93-1.499,1.482c-1.172,1.484-1.757,3.131-1.757,4.924
			c0,1.633,0.535,3.166,1.602,4.561c0.457,0.59,1.008,1.135,1.654,1.629L309.449,295.26L309.449,295.26z M309.449,326.277
			c-4.357-0.939-8.007-2.762-10.938-5.459c-3.634-3.326-5.94-8.045-6.958-14.139l13.176-1.301c0.533,2.471,1.551,4.607,3.029,6.398
			c0.538,0.658,1.103,1.248,1.69,1.771V326.277z"/>
	</g>
	<g>
		<path fill="#FFAE00" d="M331.099,149.502c21.253,0,38.588-15.941,38.588-35.484c0-19.546-17.335-35.487-38.588-35.487
			c-21.252,0-38.586,15.941-38.586,35.487C292.513,133.562,309.847,149.502,331.099,149.502z"/>
		<path fill="#FFEBBF" d="M331.099,144.05c17.99,0,32.655-13.493,32.655-30.031c0-16.542-14.665-30.033-32.655-30.033
			c-17.986,0-32.657,13.491-32.657,30.033C298.439,130.557,313.112,144.05,331.099,144.05z"/>
		<path fill="#FFAE00" d="M319.967,119.875c1.761,1.897,3.568,3.314,5.396,4.256c1.824,0.941,3.693,1.406,5.606,1.406
			c1.555,0,2.835-0.405,3.858-1.232c1.022-0.827,1.531-1.854,1.531-3.089c0-1.35-0.424-2.388-1.279-3.118
			c-0.856-0.729-2.81-1.478-5.858-2.235c-4.65-1.175-7.905-2.641-9.771-4.398c-1.871-1.75-2.801-4.16-2.801-7.209
			c0-3.758,1.289-6.798,3.857-9.127c2.564-2.345,6.158-3.723,10.782-4.16v-3.953h3.992l0.031,3.894
			c1.793,0.177,3.56,0.553,5.293,1.156c1.731,0.593,3.444,1.418,5.131,2.456l-3.926,8.113c-1.386-1.079-2.812-1.896-4.277-2.447
			c-1.455-0.557-2.928-0.827-4.386-0.827c-1.489,0-2.685,0.321-3.587,0.952c-0.913,0.641-1.368,1.467-1.368,2.488
			c0,1.047,0.404,1.881,1.205,2.506c0.802,0.63,2.385,1.223,4.746,1.794l0.4,0.107c5.067,1.254,8.391,2.645,9.989,4.158
			c1.066,1.028,1.889,2.256,2.449,3.671c0.571,1.426,0.858,3.001,0.858,4.733c0,3.942-1.299,7.216-3.901,9.808
			c-2.597,2.605-6.07,4.108-10.419,4.526v6.918h-3.995v-6.8c-2.929-0.036-5.621-0.543-8.079-1.507
			c-2.449-0.967-4.816-2.465-7.089-4.499L319.967,119.875z"/>
	</g>
	<g>
		<path fill="#FFAE00" d="M283.885,189.65c21.252,0,38.586-15.944,38.586-35.485c0-19.546-17.334-35.486-38.586-35.486
			c-21.252,0-38.587,15.941-38.587,35.486C245.298,173.707,262.633,189.65,283.885,189.65z"/>
		<path fill="#FFEBBF" d="M283.885,184.197c17.986,0,32.655-13.489,32.655-30.031s-14.669-30.033-32.655-30.033
			c-17.988,0-32.66,13.49-32.66,30.033S265.897,184.197,283.885,184.197z"/>
		<path fill="#FFAE00" d="M272.752,160.022c1.763,1.893,3.57,3.315,5.398,4.256c1.827,0.943,3.697,1.405,5.608,1.405
			c1.553,0,2.83-0.409,3.855-1.231c1.027-0.826,1.531-1.853,1.531-3.089c0-1.349-0.419-2.39-1.278-3.117
			c-0.854-0.729-2.807-1.477-5.86-2.236c-4.649-1.175-7.9-2.641-9.772-4.398c-1.866-1.75-2.796-4.161-2.796-7.209
			c0-3.759,1.288-6.798,3.856-9.131c2.565-2.337,6.156-3.719,10.783-4.155v-3.953h3.993l0.032,3.894
			c1.796,0.175,3.561,0.555,5.292,1.156c1.73,0.593,3.444,1.419,5.133,2.457l-3.93,8.113c-1.383-1.078-2.809-1.894-4.275-2.446
			c-1.462-0.557-2.928-0.827-4.387-0.827c-1.487,0-2.681,0.32-3.591,0.952c-0.908,0.641-1.361,1.463-1.361,2.488
			c0,1.047,0.401,1.881,1.203,2.506c0.803,0.63,2.386,1.222,4.744,1.794l0.401,0.107c5.069,1.251,8.394,2.643,9.993,4.158
			c1.065,1.029,1.89,2.251,2.447,3.668c0.573,1.429,0.858,3.004,0.858,4.731c0,3.947-1.301,7.22-3.898,9.81
			c-2.599,2.604-6.074,4.112-10.424,4.528v6.918h-3.994v-6.799c-2.925-0.041-5.62-0.546-8.081-1.506
			c-2.451-0.973-4.816-2.47-7.086-4.495L272.752,160.022z"/>
	</g>
	<g>
		<path fill="#FFAE00" d="M349.785,235.162c21.257,0,38.587-15.94,38.587-35.486c0-19.545-17.331-35.485-38.587-35.485
			c-21.25,0-38.585,15.941-38.585,35.485C311.201,219.222,328.535,235.162,349.785,235.162z"/>
		<path fill="#FFEBBF" d="M349.785,229.709c17.99,0,32.661-13.492,32.661-30.033c0-16.543-14.671-30.032-32.661-30.032
			c-17.987,0-32.656,13.489-32.656,30.032C317.13,216.217,331.798,229.709,349.785,229.709z"/>
		<path fill="#FFAE00" d="M338.654,205.535c1.765,1.892,3.571,3.313,5.398,4.256c1.827,0.94,3.694,1.407,5.606,1.407
			c1.554,0,2.832-0.41,3.856-1.232c1.025-0.827,1.531-1.856,1.531-3.09c0-1.35-0.42-2.392-1.278-3.119
			c-0.858-0.729-2.812-1.478-5.859-2.234c-4.648-1.173-7.9-2.643-9.771-4.401c-1.871-1.747-2.801-4.155-2.801-7.206
			c0-3.758,1.289-6.801,3.858-9.132c2.563-2.338,6.16-3.719,10.782-4.155v-3.954h3.991l0.036,3.892
			c1.791,0.175,3.559,0.557,5.286,1.158c1.737,0.59,3.447,1.418,5.137,2.456l-3.931,8.112c-1.38-1.078-2.809-1.896-4.276-2.447
			c-1.458-0.554-2.93-0.824-4.381-0.824c-1.492,0-2.686,0.32-3.593,0.95c-0.908,0.643-1.364,1.464-1.364,2.487
			c0,1.048,0.4,1.884,1.206,2.506c0.803,0.632,2.385,1.224,4.741,1.797l0.398,0.105c5.072,1.253,8.398,2.645,9.996,4.16
			c1.063,1.028,1.89,2.254,2.449,3.671c0.567,1.429,0.857,3,0.857,4.731c0,3.944-1.301,7.217-3.9,9.81
			c-2.599,2.604-6.07,4.11-10.424,4.528v6.913h-3.996v-6.797c-2.924-0.041-5.618-0.547-8.08-1.506
			c-2.449-0.973-4.813-2.469-7.085-4.497L338.654,205.535z"/>
	</g>
</g>
<rect x="168.491" y="413.146" fill="none" width="390.527" height="66.037"/>
</svg>
