<?xml version="1.0" encoding="utf-8"?>
<!-- Generator: Adobe Illustrator 16.0.0, SVG Export Plug-In . SVG Version: 6.00 Build 0)  -->
<!DOCTYPE svg PUBLIC "-//W3C//DTD SVG 1.1//EN" "http://www.w3.org/Graphics/SVG/1.1/DTD/svg11.dtd">
<svg version="1.1" id="Layer_1" xmlns="http://www.w3.org/2000/svg" xmlns:xlink="http://www.w3.org/1999/xlink" x="0px" y="0px"
	 width="640px" height="480px" viewBox="0 0 640 480" enable-background="new 0 0 640 480" xml:space="preserve">
<path fill="#71B8B0" d="M314.831,14.898c-1.607,1.361-3.729,2.376-6.333,3.033c-2.476,0.625-5.433,0.955-9.033,0.992V12.84
	 M295.123,12.549c0.997,0.196,2.154,0.302,3.472,0.302c0.322,0,0.611-0.005,0.868-0.011v6.083l0,0l-0.708,0.003
	c-3.538,0-6.721-0.42-9.551-1.264"/>
<path fill="#71B8B0" d="M520.449,12.308"/>
<path fill="#71B8B0" d="M513.921,12.743"/>
<path fill="#71B8B0" d="M533.76,14.286c-1.125,1.492-2.572,2.644-4.405,3.438c-1.864,0.804-4.309,1.201-7.428,1.201
	c-2.99,0-5.274-0.277-6.785-0.829"/>
<g>
	<polygon fill="#FC6E4B" points="95.197,77.777 311.488,77.777 347.787,77.777 347.787,273.217 95.197,273.217 	"/>
	<g>
		<rect x="160.177" y="98.71" fill="#FFFFFF" width="122.662" height="4.773"/>
		<rect x="118.411" y="110.639" fill="#FFFFFF" width="206.229" height="4.773"/>
		<rect x="118.411" y="118.987" fill="#FFFFFF" width="206.229" height="4.774"/>
		<rect x="118.411" y="127.339" fill="#FFFFFF" width="206.229" height="4.772"/>
		<rect x="118.411" y="135.69" fill="#FFFFFF" width="96.619" height="4.774"/>
	</g>
</g>
<g>
	<path fill="#335E59" d="M116.803,146.968h209.412c11.863,0,21.572,8.21,21.572,18.248v224.746c0,10.037-9.709,18.249-21.572,18.249
		H116.803c-11.896,0-21.606-8.212-21.606-18.249V165.213C95.197,155.176,104.907,146.968,116.803,146.968z"/>
	<path fill="#999999" d="M121.144,161.348h200.729c6.014,0,10.868,4.137,10.868,9.192v25.848c0,5.056-4.854,9.191-10.868,9.191
		H121.144c-5.981,0-10.867-4.136-10.867-9.191v-25.848C110.276,165.485,115.163,161.348,121.144,161.348z"/>
	<path fill="#71B8B0" d="M120.34,212.438h28.262c5.498,0,10,3.82,10,8.49v24.746c0,4.674-4.501,8.493-10,8.493H120.34
		c-5.531,0-10.063-3.819-10.063-8.493v-24.746C110.276,216.258,114.81,212.438,120.34,212.438z"/>
	<path fill="#71B8B0" d="M178.375,212.438h28.262c5.5,0,10,3.82,10,8.49v24.746c0,4.674-4.501,8.493-10,8.493h-28.262
		c-5.53,0-10.063-3.819-10.063-8.493v-24.746C168.312,216.258,172.845,212.438,178.375,212.438z"/>
	<path fill="#71B8B0" d="M236.411,212.438h28.262c5.499,0,10,3.82,10,8.49v24.746c0,4.674-4.501,8.493-10,8.493h-28.262
		c-5.498,0-10.064-3.819-10.064-8.493v-24.746C226.347,216.258,230.913,212.438,236.411,212.438z"/>
	<path fill="#FFEBBF" d="M294.447,212.438h28.262c5.531,0,10.032,3.82,10.032,8.49v24.746c0,4.674-4.501,8.493-10.032,8.493h-28.262
		c-5.498,0-10.064-3.819-10.064-8.493v-24.746C284.383,216.258,288.949,212.438,294.447,212.438z"/>
	<path fill="#71B8B0" d="M120.34,260.022h28.262c5.498,0,10,3.822,10,8.493v24.745c0,4.672-4.501,8.491-10,8.491H120.34
		c-5.531,0-10.063-3.819-10.063-8.491v-24.745C110.276,263.846,114.81,260.022,120.34,260.022z"/>
	<path fill="#71B8B0" d="M178.375,260.022h28.262c5.5,0,10,3.822,10,8.493v24.745c0,4.672-4.501,8.491-10,8.491h-28.262
		c-5.53,0-10.063-3.819-10.063-8.491v-24.745C168.312,263.846,172.845,260.022,178.375,260.022z"/>
	<path fill="#71B8B0" d="M236.411,260.022h28.262c5.499,0,10,3.822,10,8.493v24.745c0,4.672-4.501,8.491-10,8.491h-28.262
		c-5.498,0-10.064-3.819-10.064-8.491v-24.745C226.347,263.846,230.913,260.022,236.411,260.022z"/>
	<path fill="#FFEBBF" d="M294.447,260.022h28.262c5.531,0,10.032,3.822,10.032,8.493v24.745c0,4.672-4.501,8.491-10.032,8.491
		h-28.262c-5.498,0-10.064-3.819-10.064-8.491v-24.745C284.383,263.846,288.949,260.022,294.447,260.022z"/>
	<path fill="#71B8B0" d="M120.34,307.607h28.262c5.498,0,10,3.824,10,8.492v24.749c0,4.671-4.501,8.493-10,8.493H120.34
		c-5.531,0-10.063-3.822-10.063-8.493V316.1C110.276,311.43,114.81,307.607,120.34,307.607z"/>
	<path fill="#71B8B0" d="M178.375,307.607h28.262c5.5,0,10,3.824,10,8.492v24.749c0,4.671-4.501,8.493-10,8.493h-28.262
		c-5.53,0-10.063-3.822-10.063-8.493V316.1C168.312,311.43,172.845,307.607,178.375,307.607z"/>
	<path fill="#71B8B0" d="M236.411,307.607h28.262c5.499,0,10,3.824,10,8.492v24.749c0,4.671-4.501,8.493-10,8.493h-28.262
		c-5.498,0-10.064-3.822-10.064-8.493V316.1C226.347,311.43,230.913,307.607,236.411,307.607z"/>
	<path fill="#FFEBBF" d="M294.447,307.607h28.262c5.531,0,10.032,3.824,10.032,8.492v24.749c0,4.671-4.501,8.493-10.032,8.493
		h-28.262c-5.498,0-10.064-3.822-10.064-8.493V316.1C284.383,311.43,288.949,307.607,294.447,307.607z"/>
	<path fill="#71B8B0" d="M120.34,355.194h28.262c5.498,0,10,3.823,10,8.489v24.751c0,4.673-4.501,8.491-10,8.491H120.34
		c-5.531,0-10.063-3.818-10.063-8.491v-24.751C110.276,359.018,114.81,355.194,120.34,355.194z"/>
	<path fill="#71B8B0" d="M178.375,355.194h28.262c5.5,0,10,3.823,10,8.489v24.751c0,4.673-4.501,8.491-10,8.491h-28.262
		c-5.53,0-10.063-3.818-10.063-8.491v-24.751C168.312,359.018,172.845,355.194,178.375,355.194z"/>
	<path fill="#FFEBBF" d="M236.411,355.194h28.262c5.499,0,10,3.823,10,8.489v24.751c0,4.673-4.501,8.491-10,8.491h-28.262
		c-5.498,0-10.064-3.818-10.064-8.491v-24.751C226.347,359.018,230.913,355.194,236.411,355.194z"/>
	<path fill="#FFEBBF" d="M294.447,355.194h28.262c5.531,0,10.032,3.823,10.032,8.489v24.751c0,4.673-4.501,8.491-10.032,8.491
		h-28.262c-5.498,0-10.064-3.818-10.064-8.491v-24.751C284.383,359.018,288.949,355.194,294.447,355.194z"/>
	<path fill="#FFFFFF" d="M312.002,193.371l0.032,0.033l1.318-1.099h5.208v-7.647l1.286-1.218l-1.286-1.149v-4.299l-3.793,4.617
		h-1.802v-2.584l4.341-5.403h-3.954l-1.351-1.063v-0.726l0.032,0.032l1.318-1.098h5.465l1.833,1.387l-0.064,0.029l1.286,1.167v7.939
		l-1.286,1.22l1.286,1.146v7.866l-1.64,1.591l-0.032-0.053l-1.382,1.101h-5.465l-1.351-1.065V193.371L312.002,193.371z
		 M306.633,192.306h3.987l1.382,1.065v0.727l-0.064-0.036l-1.318,1.101h-5.498l-1.769-1.393l0.064-0.048l-1.318-1.198v-7.866
		l1.318-1.218l-1.318-1.149v-7.889l1.607-1.537l0.065,0.024l1.35-1.123h5.499l1.382,1.065v0.726l-0.065-0.034l-1.317,1.098h-5.208
		v7.67l-1.255,1.22l1.255,1.146v4.273l3.762-4.613h1.865v2.587L306.633,192.306z"/>
	<path fill="#FFEBBF" d="M141.817,227.653c-2.218,2.211-3.793,4.274-4.597,6.192c-0.805,1.915-1.383,4.223-1.737,6.931l-0.193,1.791
		h-4.18l0.193-1.791c0.29-2.597,0.997-4.972,2.058-7.145c1.125-2.167,2.54-4.16,4.405-5.979h-10.708v-2.724h14.758L141.817,227.653
		L141.817,227.653z"/>
	<path fill="#FFEBBF" d="M199.693,229.187c0,0.881-0.29,1.658-0.803,2.338c-0.546,0.678-1.318,1.207-2.283,1.586
		c1.125,0.397,1.993,0.961,2.636,1.692c0.611,0.737,0.965,1.578,0.965,2.526c0,1.63-0.643,2.885-1.961,3.76
		c-1.317,0.878-3.054,1.315-5.176,1.315l0,0v-2.712l0,0c0.868,0,1.576-0.231,2.123-0.703c0.578-0.465,0.836-1.101,0.836-1.902
		c0-0.794-0.257-1.428-0.836-1.902c-0.546-0.475-1.254-0.714-2.123-0.718v-2.723l0,0c0.771,0,1.383-0.215,1.769-0.649
		c0.481-0.432,0.708-1.012,0.708-1.749c0-0.713-0.225-1.282-0.708-1.713c-0.386-0.431-0.998-0.643-1.769-0.651v-2.722
		c1.994,0,3.602,0.432,4.823,1.289C199.114,226.408,199.693,227.62,199.693,229.187z M193.069,242.403
		c-2.123,0-3.825-0.44-5.145-1.315c-1.319-0.874-1.962-2.129-1.962-3.76c0-0.958,0.29-1.793,0.965-2.528
		c0.643-0.73,1.511-1.299,2.605-1.701c-0.964-0.383-1.704-0.906-2.25-1.583c-0.58-0.672-0.836-1.449-0.836-2.331
		c0-1.565,0.611-2.778,1.833-3.638c1.222-0.86,2.798-1.29,4.791-1.29l0,0v2.721l0,0c-0.74,0-1.35,0.214-1.801,0.641
		c-0.418,0.423-0.612,0.998-0.612,1.724c0,0.737,0.194,1.317,0.612,1.748c0.45,0.433,1.061,0.644,1.801,0.65v2.723l0,0
		c-0.9,0-1.607,0.24-2.123,0.717c-0.546,0.475-0.803,1.109-0.803,1.903c0,0.807,0.257,1.447,0.803,1.908
		c0.578,0.466,1.286,0.695,2.123,0.697L193.069,242.403L193.069,242.403z"/>
	<path fill="#FFEBBF" d="M250.977,239.623c0.708-0.132,1.35-0.451,1.864-0.965c0.708-0.69,1.029-1.678,1.029-2.96v-0.874
		c-0.482,0.5-1.029,0.879-1.671,1.135c-0.353,0.161-0.836,0.275-1.221,0.332v-2.531c0.611-0.018,1.157-0.123,1.671-0.326
		c0.514-0.219,0.899-0.512,1.221-0.875v-1.624c0-1.292-0.257-2.275-0.771-2.947c-0.547-0.656-1.254-0.987-2.123-0.999v-2.729
		c2.058,0.016,3.793,0.635,5.111,1.862c1.318,1.24,1.961,2.981,1.961,5.228v4.164c0,2.141-0.708,3.824-2.218,5.052
		c-1.317,1.083-2.926,1.686-4.854,1.816V239.623L250.977,239.623z M250.173,239.691c0.256,0,0.546-0.023,0.803-0.068v2.756
		c-0.257,0.021-0.547,0.025-0.803,0.025c-0.772,0-1.479-0.063-2.283-0.183c-0.772-0.13-1.479-0.311-2.123-0.556l0.515-2.553
		c0.611,0.203,1.19,0.351,1.801,0.439C248.694,239.652,249.401,239.691,250.173,239.691L250.173,239.691z M250.977,236.289
		c-0.322,0.04-0.547,0.061-0.868,0.061c-1.93,0-3.44-0.537-4.533-1.603c-1.125-1.072-1.672-2.519-1.672-4.348
		c0-1.757,0.644-3.222,1.961-4.391c1.318-1.167,2.99-1.75,5.015-1.75h0.097v2.729l-0.097-0.006c-0.804,0-1.512,0.334-2.026,0.998
		c-0.546,0.661-0.803,1.468-0.803,2.42c0,1.003,0.257,1.809,0.708,2.43c0.481,0.616,1.189,0.93,2.058,0.93h0.16V236.289
		L250.977,236.289z"/>
	<path fill="#335E59" d="M314.317,242.396v-1.967l0,0c0.675,0,1.061-0.152,1.382-0.458c0.257-0.298,0.388-0.703,0.388-1.211v-0.932
		c0-0.462-0.131-0.849-0.453-1.179c-0.289-0.325-0.771-0.491-1.318-0.491v-1.965c1.415,0,2.541,0.342,3.346,1.035
		c0.804,0.689,1.222,1.558,1.222,2.599v0.932c0,1.048-0.418,1.915-1.222,2.604C316.89,242.049,315.796,242.396,314.317,242.396
		L314.317,242.396L314.317,242.396z M314.317,228.289v-1.655l0.932,0.411L314.317,228.289z M304.318,224.257
		c1.447,0,2.572,0.344,3.376,1.034c0.771,0.691,1.157,1.565,1.157,2.614v0.93c0,1.043-0.386,1.906-1.157,2.593
		c-0.804,0.689-1.929,1.03-3.344,1.03h-0.032v-1.962h0.032c0.579,0,0.965-0.162,1.286-0.479c0.29-0.321,0.45-0.715,0.45-1.181v-0.93
		c0-0.469-0.161-0.866-0.45-1.191c-0.321-0.327-0.771-0.49-1.318-0.493V224.257L304.318,224.257z M314.317,226.634l-1.093-0.498
		l-8.906,11.995v2.38l0.74,0.317l9.259-12.54V226.634L314.317,226.634z M314.317,234.194v1.965c-0.546,0-0.997,0.166-1.318,0.491
		c-0.289,0.33-0.45,0.716-0.45,1.179v0.932c0,0.457,0.161,0.851,0.514,1.18c0.29,0.318,0.739,0.483,1.254,0.489v1.967
		c-1.415-0.01-2.507-0.351-3.344-1.035c-0.803-0.691-1.189-1.561-1.189-2.601v-0.932c0-1.034,0.387-1.899,1.189-2.591
		C311.809,234.54,312.902,234.194,314.317,234.194z M299.817,227.905c0-1.042,0.386-1.911,1.158-2.603
		c0.804-0.695,1.929-1.044,3.343-1.044l0,0v1.963l0,0c-0.546,0-0.964,0.167-1.253,0.493c-0.322,0.326-0.482,0.723-0.482,1.191v0.93
		c0,0.466,0.161,0.86,0.482,1.181c0.289,0.312,0.707,0.479,1.253,0.479v1.962c-1.415-0.002-2.54-0.349-3.343-1.031
		c-0.772-0.686-1.158-1.548-1.158-2.592V227.905L299.817,227.905z M304.318,238.131v2.38L303,239.919L304.318,238.131z"/>
	<path fill="#FFEBBF" d="M139.89,283.142h2.379v2.733h-2.379v3.837h-4.18v-3.837h-2.379v-2.733h2.379v-6.349l-0.065-0.022
		l-0.353,0.493l-1.961,2.659v-4.671l2.379-3.183h4.18V283.142L139.89,283.142z M133.33,285.875h-6.141l-0.193-2.119l6.334-8.506
		v4.672l-2.444,3.219h2.444V285.875L133.33,285.875z"/>
	<path fill="#FFEBBF" d="M186.606,281.892l1.223-9.822h11.639v2.833h-8.264l-0.546,4.07c0.418-0.242,0.868-0.44,1.415-0.599
		c0.515-0.161,1.125-0.24,1.768-0.251c2.025-0.023,3.602,0.487,4.663,1.537c1.092,1.053,1.671,2.516,1.671,4.39
		c0,1.693-0.612,3.104-1.833,4.23c-1.158,1.12-2.926,1.678-5.209,1.678c-1.93,0-3.537-0.438-4.918-1.322
		c-1.352-0.88-1.995-2.104-1.962-3.654v-0.061l4.051-0.175c0,0.789,0.257,1.403,0.772,1.839c0.546,0.446,1.189,0.663,2.058,0.663
		c0.964,0,1.704-0.295,2.187-0.881c0.45-0.582,0.643-1.348,0.643-2.293c0-1.017-0.193-1.836-0.708-2.446
		c-0.515-0.618-1.254-0.926-2.219-0.926c-0.803,0-1.414,0.126-1.833,0.378c-0.45,0.245-0.74,0.584-0.9,1.017L186.606,281.892z"/>
	<path fill="#FFEBBF" d="M252.488,271.817c0.803,0,1.511,0.061,2.186,0.187c0.644,0.126,1.35,0.31,2.026,0.552l-0.771,2.593
		c-0.611-0.186-1.221-0.327-1.671-0.418c-0.515-0.094-1.061-0.144-1.704-0.144c-0.418,0-0.836,0.048-1.189,0.133v-2.854
		C251.715,271.833,252.133,271.817,252.488,271.817L252.488,271.817z M251.362,277.962c0.418-0.061,0.836-0.084,1.286-0.084
		c1.864,0,3.343,0.554,4.405,1.673c1.061,1.119,1.543,2.55,1.543,4.28c0,1.779-0.643,3.248-1.961,4.398
		c-1.317,1.155-2.99,1.73-5.047,1.73l-0.225-0.004v-2.713l0.225,0.007c0.836,0,1.575-0.336,2.058-0.997
		c0.514-0.671,0.771-1.473,0.771-2.422c0-0.975-0.257-1.766-0.771-2.372c-0.482-0.607-1.222-0.905-2.123-0.905h-0.16V277.962
		L251.362,277.962z M251.362,274.72c-0.74,0.175-1.35,0.532-1.897,1.079c-0.771,0.8-1.125,1.91-1.062,3.335l0.032,0.061
		c0.45-0.411,1.061-0.734,1.768-0.971c0.353-0.121,0.771-0.208,1.158-0.262v2.591c-0.708,0.012-1.287,0.115-1.801,0.31
		c-0.546,0.213-0.964,0.497-1.254,0.859v1.179c0,1.4,0.29,2.472,0.9,3.221c0.546,0.699,1.254,1.075,2.154,1.122v2.713
		c-2.122-0.034-3.826-0.67-5.145-1.89c-1.414-1.265-2.122-3.015-2.122-5.254v-3.439c0-2.305,0.803-4.148,2.379-5.507
		c1.317-1.152,2.991-1.816,4.887-2v2.854H251.362z"/>
	<polygon fill="#335E59" points="309.205,280.768 309.333,280.768 311.681,276.598 316.409,276.598 311.745,283.079 
		316.536,289.711 311.841,289.711 309.333,285.358 306.793,289.711 302.035,289.711 306.89,283.079 302.196,276.598 306.89,276.598 
			"/>
	<polygon fill="#FFEBBF" points="137.059,337.292 132.879,337.292 132.879,322.779 128.667,322.779 128.667,320.281 
		137.059,319.655 	"/>
	<path fill="#FFEBBF" d="M200.303,337.292H186.06v-2.318l6.784-6.114c0.933-0.943,1.641-1.737,2.058-2.393
		c0.418-0.653,0.611-1.253,0.611-1.813c0-0.737-0.256-1.346-0.708-1.823c-0.45-0.472-1.126-0.706-2.026-0.706
		c-0.964,0-1.671,0.279-2.186,0.831c-0.481,0.552-0.74,1.293-0.74,2.211h-4.115v-0.076c-0.032-1.588,0.579-2.937,1.897-4.035
		c1.254-1.103,2.958-1.652,5.145-1.652s3.827,0.47,5.113,1.416c1.221,0.943,1.801,2.204,1.801,3.78c0,1.066-0.354,2.045-1.062,2.944
		c-0.643,0.9-1.8,2.085-3.375,3.545l-3.73,3.43l0.032,0.063h8.745L200.303,337.292L200.303,337.292z"/>
	<path fill="#FFEBBF" d="M248.339,326.972h2.38c0.964,0,1.704-0.218,2.186-0.661c0.482-0.439,0.708-1.049,0.708-1.836
		c0-0.707-0.225-1.277-0.708-1.708c-0.481-0.427-1.189-0.642-2.089-0.642c-0.74,0-1.447,0.193-1.961,0.585
		c-0.546,0.382-0.803,0.895-0.803,1.522h-4.05l-0.065-0.072c-0.032-1.381,0.611-2.519,1.897-3.414
		c1.286-0.901,2.926-1.344,4.887-1.344c2.186,0,3.89,0.43,5.145,1.305c1.286,0.872,1.929,2.118,1.929,3.736
		c0,0.76-0.29,1.494-0.868,2.182c-0.546,0.694-1.35,1.23-2.348,1.62c1.158,0.349,2.058,0.882,2.669,1.601
		c0.612,0.718,0.9,1.554,0.9,2.506c0,1.617-0.708,2.888-2.122,3.813c-1.35,0.919-3.119,1.387-5.305,1.387
		c-1.961,0-3.601-0.436-5.016-1.304c-1.35-0.868-2.058-2.094-2.025-3.676l0.064-0.074h4.051c0,0.679,0.29,1.243,0.868,1.683
		c0.546,0.437,1.286,0.658,2.154,0.658c0.964,0,1.736-0.226,2.283-0.678c0.546-0.451,0.868-1.068,0.868-1.841
		c0-0.931-0.257-1.615-0.804-2.042c-0.578-0.434-1.382-0.651-2.443-0.651h-2.379v-2.654H248.339z"/>
	<rect x="305.283" y="328.501" fill="#335E59" width="8.07" height="2.72"/>
	<path fill="#FFEBBF" d="M141.657,378.012c0,2.332-0.611,4.107-1.864,5.311c-1.254,1.209-2.99,1.813-5.145,1.813l0,0v-2.712l0,0
		c0.964,0,1.671-0.321,2.122-0.97c0.483-0.648,0.74-1.68,0.74-3.103v-4.591c0-1.397-0.256-2.422-0.74-3.071
		c-0.515-0.647-1.221-0.975-2.122-0.977v-2.727c2.122,0.004,3.827,0.611,5.08,1.824c1.318,1.219,1.929,2.985,1.929,5.317V378.012
		L141.657,378.012z M134.648,385.135c-2.186-0.003-3.891-0.609-5.177-1.813c-1.254-1.204-1.929-2.979-1.929-5.311v-3.884
		c0-2.332,0.675-4.099,1.929-5.317c1.286-1.214,2.991-1.824,5.177-1.824l0,0v2.727l0,0c-0.965,0-1.671,0.322-2.186,0.968
		c-0.515,0.648-0.708,1.676-0.708,3.08v4.592c0,1.422,0.193,2.454,0.708,3.102c0.514,0.64,1.221,0.964,2.186,0.97V385.135z"/>
	<path fill="#FFEBBF" d="M189.757,375.116c0-0.807,0.29-1.466,0.9-1.984c0.61-0.519,1.479-0.778,2.476-0.778
		c1.061,0,1.865,0.258,2.54,0.77c0.579,0.512,0.9,1.179,0.9,1.993v1.092c0,0.815-0.321,1.473-0.9,1.974
		c-0.675,0.496-1.479,0.751-2.54,0.751c-0.997,0-1.865-0.254-2.476-0.758c-0.611-0.506-0.9-1.166-0.9-1.967V375.116z"/>
	<polygon fill="#335E59" points="253.035,375.037 258.209,375.037 258.209,378.095 253.035,378.095 253.035,383.105 
		249.111,383.105 249.111,378.095 243.903,378.095 243.903,375.037 249.111,375.037 249.111,370.272 253.035,370.272 	"/>
	<path fill="#335E59" d="M315.603,375.639h-12.86v-2.776h12.86V375.639L315.603,375.639z M315.603,380.858h-12.86v-2.775h12.86
		V380.858z"/>
</g>
<path fill="#FFD5C9" d="M543.598,217.452c-1.511,2.629-5.305,3.743-8.39,2.469l-192.05-78.446l-18.519-18.389l28.553,0.846
	l192.046,78.448"/>
<path fill="#FC6E4B" d="M543.598,217.452c-1.511,2.632-5.305,3.743-8.39,2.469l-192.05-78.446l-18.519-18.389l24.468,10.001
	l196.775,80.375"/>
<path fill="#D6FFFA" d="M536.879,198.977c-2.283,6.684-5.659,12.469-9.999,17.54l-183.722-75.043l-18.519-18.388l28.553,0.846
	L536.879,198.977"/>
<path fill="#71B8B0" d="M343.158,141.475l-18.519-18.389l24.468,10.001l183.689,75.03c-1.736,3.005-3.697,5.793-5.917,8.399
	L343.158,141.475z"/>
<path fill="#71B8B0" d="M343.158,141.475l-18.519-18.389l28.553,0.846l177.064,72.337c-2.218,6.754-5.595,12.537-9.999,17.545
	L343.158,141.475z"/>
<path fill="#335E59" d="M343.158,141.475l-18.519-18.389l24.468,10.001l177.099,72.35c-1.705,3.017-3.668,5.799-5.95,8.377
	L343.158,141.475z"/>
<path fill="#FFD5C9" d="M343.158,141.475l-18.519-18.389l28.553,0.846c-0.997,3.039-2.316,6.112-4.085,9.155
	C347.402,136.129,345.377,138.94,343.158,141.475z"/>
<path fill="#FC6E4B" d="M343.158,141.475l-18.519-18.389l24.468,10.001C347.402,136.129,345.377,138.94,343.158,141.475z"/>
<path fill="#335E59" d="M330.748,129.163l-6.108-6.077l9.452,0.282c-0.354,1.002-0.804,2.02-1.351,3.026
	C332.162,127.395,331.455,128.326,330.748,129.163z"/>
</svg>
