<?xml version="1.0" encoding="utf-8"?>
<!-- Generator: Adobe Illustrator 16.0.0, SVG Export Plug-In . SVG Version: 6.00 Build 0)  -->
<!DOCTYPE svg PUBLIC "-//W3C//DTD SVG 1.1//EN" "http://www.w3.org/Graphics/SVG/1.1/DTD/svg11.dtd">
<svg version="1.1" id="Layer_1" xmlns="http://www.w3.org/2000/svg" xmlns:xlink="http://www.w3.org/1999/xlink" x="0px" y="0px"
	 width="640px" height="480px" viewBox="0 0 640 480" enable-background="new 0 0 640 480" xml:space="preserve">
<g>
	<g>
		<g>
			<g>
				<path fill="#FFFFFF" d="M186.129,129.418l-4.346,0.486l-4.342,0.484c-2.4,0.269-4.328,2.669-4.309,5.365l0.072,10.16
					c0.02,2.69,1.981,4.658,4.379,4.39l4.345-0.486l4.343-0.486c2.4-0.268,4.33-2.669,4.309-5.361l-0.071-10.16
					C190.489,131.117,188.529,129.15,186.129,129.418"/>
				<path fill="#FFFFFF" d="M181.928,149.817c-0.167,0.569-0.344,1.237-0.524,2.03l-15.531,68.916
					c-1.261,5.603-0.157,13.924,2.457,18.485l11.521,20.123c1.089,1.902,2.088,2.841,2.88,2.903c0.792-0.24,1.776-1.399,2.836-3.541
					l11.216-22.664c2.544-5.137,3.527-13.691,2.188-19.004l-16.492-65.336C182.288,150.978,182.103,150.347,181.928,149.817"/>
				<g>
					<path fill="#1D1D1B" d="M182.46,34.038c-23.598,3.046-32.84,14.106-32.889,38.195c-0.001,0.311,0.055,17.786,6.83,31.773
						c5.02,10.366,14.642,18.719,25.881,17.268c12.532-1.617,22.121-14.32,27.168-27.361c5.586-14.441,5.937-29.278,5.937-29.457
						C215.437,40.368,206.054,30.992,182.46,34.038"/>
				</g>
			</g>
			<g>
				<g>
					<path fill="#1D1D1B" d="M480.645,25.535c23.595,3.045,32.838,14.106,32.887,38.196c0,0.312-0.057,17.786-6.83,31.774
						c-5.02,10.364-14.643,18.718-25.883,17.267c-12.528-1.617-22.118-14.321-27.164-27.359
						c-5.589-14.444-5.939-29.279-5.939-29.458C447.667,31.864,457.05,22.492,480.645,25.535"/>
				</g>
				<path fill="#FFFFFF" d="M473.923,120.127l4.346,0.486l4.342,0.485c2.399,0.27,4.328,2.674,4.309,5.372l-0.07,10.177
					c-0.021,2.696-1.981,4.666-4.38,4.398l-4.344-0.489l-4.345-0.485c-2.4-0.268-4.329-2.673-4.312-5.369l0.073-10.175
					C469.563,121.828,471.523,119.857,473.923,120.127"/>
				<path fill="#FFFFFF" d="M478.125,140.557c0.165,0.572,0.342,1.241,0.521,2.036l15.529,69.025
					c1.265,5.613,0.16,13.947-2.453,18.518l-11.525,20.151c-1.086,1.908-2.085,2.847-2.877,2.909
					c-0.791-0.239-1.775-1.4-2.837-3.548l-11.215-22.7c-2.545-5.146-3.527-13.715-2.189-19.032l16.495-65.444
					C477.765,141.72,477.95,141.089,478.125,140.557"/>
			</g>
		</g>
		<g>
			<path fill="#FFFFFF" d="M330.027,353.001c-119.376,0-217.508-25.7-228.9-58.59c-0.604-1.741-0.963-3.501-1.071-5.276
				c-0.021,0.379-0.038,0.756-0.038,1.136c0,1.775,0.256,3.535,0.751,5.275c9.506,33.431,108.514,59.726,229.258,59.726
				c120.748,0,219.766-26.298,229.255-59.73c0.496-1.743,0.749-3.497,0.749-5.271c0-0.38-0.014-0.757-0.037-1.136
				c-0.108,1.775-0.467,3.53-1.063,5.266C547.553,327.299,449.415,353.001,330.027,353.001z"/>
			<g>
				<path fill="#1D1D1B" d="M436.802,227.294l1.798-52.125l-0.403,52.333c9.698,1.463,18.98,3.117,27.789,4.942l-2.717-5.496
					c-2.545-5.146-3.527-13.715-2.189-19.032l16.495-65.444c0.19-0.752,0.376-1.383,0.551-1.916l-4.345-0.485
					c-2.4-0.268-4.329-2.673-4.312-5.369l0.073-10.175c0.021-2.699,1.981-4.67,4.381-4.4l4.346,0.486l4.342,0.485
					c2.399,0.27,4.328,2.674,4.309,5.372l-0.07,10.177c-0.021,2.696-1.981,4.666-4.38,4.398l-4.344-0.489
					c0.165,0.572,0.342,1.241,0.521,2.036l15.529,69.025c1.265,5.613,0.16,13.947-2.453,18.518l-4.214,7.368
					c10.183,2.706,19.491,5.67,27.801,8.854l2.339-61.927l0.032,62.853c13.205,5.253,23.711,11.085,30.958,17.337l-3.004-111.161
					c-0.809-6.478-4.52-11.984-9.416-14.905c-5.798-3.911-33.362-21.798-57.105-24.857c-0.313-0.039-0.623-0.076-0.939-0.111
					c-26.494-2.964-57.762,12.11-57.762,12.11l0.035,0.005c-4.83,1.875-8.518,6.496-9.404,12.693l-4.502,85.167
					C416.994,224.602,427.103,225.853,436.802,227.294z"/>
			</g>
			<g>
				<path fill="#1D1D1B" d="M142.375,247.284l0.027-53.663l2.001,52.869c7.161-2.763,15.073-5.354,23.653-7.761
					c-2.414-4.651-3.399-12.566-2.183-17.966l15.531-68.916c0.18-0.793,0.356-1.461,0.524-2.03l-4.345,0.486
					c-2.398,0.268-4.359-1.7-4.379-4.39l-0.072-10.16c-0.019-2.695,1.909-5.096,4.309-5.365l4.342-0.484l4.346-0.486
					c2.4-0.268,4.36,1.699,4.38,4.392l0.071,10.16c0.021,2.692-1.909,5.093-4.309,5.361l-4.343,0.486
					c0.175,0.53,0.36,1.16,0.551,1.913l16.492,65.336c0.998,3.952,0.707,9.699-0.556,14.497c7.477-1.476,15.279-2.829,23.37-4.05
					l-0.335-43.14l1.487,42.966c9.646-1.438,19.697-2.687,30.092-3.729l-4.022-75.952c-0.885-6.188-4.572-10.802-9.403-12.673
					l0.034-0.004c0,0-31.268-15.051-57.761-12.092c-0.315,0.034-0.625,0.072-0.938,0.113c-23.744,3.052-51.309,20.912-57.106,24.816
					c-4.899,2.915-8.606,8.413-9.416,14.882l-2.752,101.707C118.902,258.236,129.323,252.479,142.375,247.284z"/>
			</g>
		</g>
		<g>
			<g>
				<path d="M230.722,348.915c-71.996-9.756-123.246-29.786-129.952-53.369c-0.176,0.621-0.33,1.24-0.444,1.867v6.789
					c4.431,24.342,56.256,45.146,129.907,55.188L230.722,348.915z"/>
				<path d="M559.282,295.541c-6.687,23.557-57.826,43.569-129.694,53.339l0.521,10.472c76.892-10.52,129.923-32.781,129.923-58.543
					C560.031,299.034,559.778,297.274,559.282,295.541z"/>
			</g>
			<path fill="#1D1D1B" d="M272.82,418.151l2.46-96.095v96.095h109.483v-96.563l2.891,96.563h42.269l-6.662-134.634
				c-1.166-7.115-6.224-12.806-12.889-15.531c0.018,0,0.031-0.004,0.048-0.004c0,0-44.145-21.491-81.113-20.979
				c-32.888,0.447-71.211,17.175-79.27,20.862c-6.81,2.678-11.997,8.433-13.179,15.652l-6.27,134.634H272.82z"/>
			<g>
				<path d="M559.967,286.447c-2.673-32.176-88.062-58.563-198.389-62.842c-2.983,5.704-6.73,10.642-10.978,14.431
					c-3.283,2.928-6.839,5.117-10.552,6.531c13.42,1.127,28.607,4.561,45.303,10.264c15.379,5.251,26.067,10.43,26.515,10.648
					l-0.002,0.011c7.785,3.272,13.178,9.836,14.453,17.604l0.023,0.148l3.136,63.383c70.775-9.604,121.469-29.145,129.454-52.225
					c0.597-1.735,0.955-3.49,1.063-5.266c0.023-0.376,0.037-0.754,0.037-1.134C560.031,287.481,560.009,286.964,559.967,286.447z"/>
				<path d="M310.612,239.317c-5.103-4.015-9.454-9.436-12.611-15.694c-107.998,4.253-191.991,29.698-197.676,60.991v2.266v0.263
					c-0.008-0.046-0.013-0.09-0.022-0.137c-0.064-0.375-0.118-0.751-0.159-1.132c-0.022,0.191-0.042,0.381-0.06,0.57
					c-0.043,0.515-0.067,1.037-0.067,1.557c0,0.38,0.017,0.758,0.038,1.134c0.108,1.775,0.468,3.535,1.071,5.276
					c8.003,23.102,58.802,42.657,129.699,52.249l2.953-63.415l0.025-0.147c1.302-7.958,6.881-14.607,14.933-17.808
					c7.038-3.214,40.127-17.684,71.332-20.612C316.791,243.472,313.61,241.678,310.612,239.317z"/>
			</g>
			<path fill="#1D1D1B" d="M329.918,243.459c-12.628,0-23.458-9.987-29.125-21.452c-7.646-15.477-7.748-33.68-7.748-34.004
				c0-25.075,10.363-35.348,36.873-35.348c26.512,0,37.074,11.018,37.074,36.095c0,0.185-0.358,15.584-6.604,29.872
				C354.748,231.522,343.997,243.459,329.918,243.459z"/>
		</g>
	</g>
</g>
</svg>
