<?xml version="1.0" encoding="utf-8"?>
<!-- Generator: Adobe Illustrator 16.0.0, SVG Export Plug-In . SVG Version: 6.00 Build 0)  -->
<!DOCTYPE svg PUBLIC "-//W3C//DTD SVG 1.1//EN" "http://www.w3.org/Graphics/SVG/1.1/DTD/svg11.dtd">
<svg version="1.1" id="Layer_1" xmlns="http://www.w3.org/2000/svg" xmlns:xlink="http://www.w3.org/1999/xlink" x="0px" y="0px"
	 width="640px" height="480px" viewBox="0 0 640 480" enable-background="new 0 0 640 480" xml:space="preserve">
<g>
	<g>
		<rect x="250.412" y="56.002" fill="#5EA69E" width="279.845" height="331.211"/>
		<rect x="259.936" y="74.994" fill="#D6FFFA" width="260.797" height="304.208"/>
		<polygon fill="#CCCCCC" points="339.313,74.994 443.284,74.994 442.324,84.244 338.347,84.244 		"/>
		<path fill="#9DB8CC" d="M348.661,61.752h28.01v-5.749h30.505v5.749h28.021c4.795,0,9.127,3.25,8.717,7.188l-0.63,6.054H339.313
			l0.63-6.054C340.35,65.001,343.862,61.752,348.661,61.752z"/>
		<path fill="#335E59" d="M390.337,10.814L390.337,10.814c8.387,0,15.251,5.661,15.251,12.581v36.714h28.022
			c4.783,0,8.717,3.238,8.717,7.189v16.945H390.34V29.177c3.87,0,7.01-2.586,7.01-5.781c0-3.194-3.14-5.784-7.01-5.784v-6.797
			H390.337z M347.069,60.109h28.01V23.396c0-6.921,6.867-12.581,15.258-12.581v6.798c-3.875,0-7.007,2.589-7.007,5.785
			c0,3.195,3.13,5.781,7.007,5.781v55.067h-51.99V67.299C338.347,63.347,342.276,60.109,347.069,60.109z"/>
	</g>
	<g>
		<g>
			
				<path fill="none" stroke="#71B8B0" stroke-width="1.9199" stroke-linecap="round" stroke-linejoin="round" stroke-miterlimit="22.9256" d="
				M390.337,178.126c31.382,0,56.815,20.98,56.815,46.864c0,16.871-10.808,31.651-27.025,39.904l-5.984,38.624h-47.608
				l-5.993-38.624c-16.22-8.253-27.027-23.033-27.027-39.904C333.514,199.106,358.96,178.126,390.337,178.126z"/>
			<g>
				<path fill="#71B8B0" d="M381.01,283.707c0.297,1.004-0.452,2.006-1.66,2.25c-1.206,0.241-2.433-0.373-2.723-1.373l-9.659-32.496
					v-15.241l0.231,0.373c-0.052-0.168-0.129-0.327-0.231-0.469v-0.078c0.823,0.719,1.725,1.396,2.678,2.033
					c5.579,3.7,12.874,5.644,20.097,5.677c7.186,0.027,14.261-1.838,19.433-5.747c0.856-0.641,1.672-1.361,2.438-2.143
					c0.786-0.8,2.205-0.927,3.175-0.281c0.73,0.485,0.992,1.263,0.754,1.963l-13.79,46.412c-0.3,0.999-1.515,1.614-2.732,1.373
					c-1.206-0.244-1.957-1.245-1.657-2.25l12.024-40.449c-5.654,3.29-12.629,4.869-19.66,4.839
					c-7.358-0.029-14.799-1.819-20.853-5.238L381.01,283.707z M366.97,252.088l-4.158-13.99c-0.288-1.001,0.447-2.006,1.658-2.245
					c0.875-0.176,1.753,0.091,2.275,0.624l0.225,0.195v0.078c-0.07-0.098-0.136-0.189-0.225-0.273l0.225,0.372V252.088z"/>
			</g>
			<path fill="#71B8B0" d="M355.14,278.479h70.389l-3.519,27.035c-0.64,4.89-0.862,7.212-8.754,7.212h-45.844
				c-7.893,0-8.114-2.322-8.744-7.212L355.14,278.479z"/>
		</g>
		<g>
			<path fill="#71B8B0" d="M421.941,137.889c0.56-1.285,1.7-2.26,3.093-2.796c1.394-0.538,3.034-0.636,4.592-0.173
				c1.557,0.465,2.739,1.41,3.395,2.555c0.655,1.149,0.768,2.506,0.203,3.786l-12.396,28.097l-0.054,0.13
				c-0.56,1.284-1.709,2.259-3.103,2.795c-1.198,0.462-2.577,0.601-3.921,0.336h-0.307l-0.518-0.214
				c-1.48-0.479-2.602-1.4-3.231-2.509c-0.655-1.149-0.774-2.504-0.213-3.786l0.04-0.093L421.941,137.889z"/>
			<path fill="#71B8B0" d="M455.726,151.978c1.065-1.041,2.552-1.634,4.095-1.745c1.529-0.113,3.114,0.253,4.376,1.128
				c1.269,0.87,1.992,2.097,2.126,3.366c0.138,1.263-0.313,2.575-1.367,3.615l-23.415,23.011c-1.063,1.044-2.54,1.643-4.09,1.752
				c-1.529,0.114-3.114-0.258-4.378-1.13c-1.27-0.875-1.983-2.102-2.119-3.371c-0.136-1.262,0.307-2.566,1.369-3.612
				L455.726,151.978z"/>
			<path fill="#71B8B0" d="M481.646,174.763l0.239-0.108l0.538-0.251h0.154c1.178-0.363,2.447-0.4,3.622-0.142h0.005
				c1.482,0.326,2.818,1.121,3.652,2.308l0.44,0.616v0.148c0.436,0.978,0.478,2.021,0.171,2.983v0.01
				c-0.398,1.222-1.363,2.325-2.801,3.009l-31.531,15.022c-1.438,0.683-3.072,0.822-4.552,0.5h-0.017
				c-1.477-0.329-2.813-1.121-3.646-2.307c-0.828-1.183-0.997-2.531-0.605-3.753c0.391-1.227,1.362-2.331,2.797-3.019h0.01
				l31.532-15.013L481.646,174.763z"/>
			<path fill="#71B8B0" d="M496.583,203.467c1.622-0.232,3.222,0.105,4.48,0.833c1.26,0.73,2.185,1.856,2.466,3.203
				c0.29,1.348-0.119,2.665-1.002,3.708c-0.885,1.033-2.245,1.795-3.887,2.034l0,0l-35.863,5.218h-0.017
				c-1.622,0.231-3.214-0.103-4.483-0.832c-1.257-0.731-2.175-1.854-2.465-3.203v-0.013c-0.281-1.339,0.126-2.652,1.012-3.698
				c0.885-1.039,2.254-1.797,3.889-2.034l35.86-5.218H496.583z"/>
			<path fill="#71B8B0" d="M384.317,134.17c0-1.376,0.672-2.618,1.759-3.514c1.089-0.897,2.594-1.453,4.261-1.453
				c1.66,0,3.166,0.556,4.254,1.453c1.089,0.897,1.768,2.14,1.768,3.514v30.033c0,1.376-0.679,2.612-1.768,3.515
				c-1.088,0.898-2.594,1.453-4.254,1.453c-1.667,0-3.172-0.556-4.261-1.453c-1.087-0.901-1.759-2.139-1.759-3.515V134.17z"/>
			<path fill="#71B8B0" d="M347.443,141.261c-0.56-1.28-0.442-2.636,0.214-3.786c0.646-1.146,1.828-2.09,3.383-2.555
				c1.557-0.463,3.2-0.365,4.594,0.173c1.396,0.535,2.542,1.511,3.104,2.796l12.45,28.225l0.203,0.453v0.103
				c0.316,1.114,0.146,2.245-0.407,3.23c-0.658,1.146-1.836,2.09-3.395,2.556l-0.545,0.166h-0.131
				c-1.345,0.259-2.726,0.119-3.908-0.336c-1.349-0.521-2.473-1.453-3.048-2.681v-0.007l-0.023-0.035l-0.023-0.041l-0.01-0.032
				L347.443,141.261z"/>
			<path fill="#71B8B0" d="M315.722,158.343c-1.061-1.044-1.504-2.352-1.369-3.615c0.136-1.27,0.853-2.498,2.119-3.366
				c1.267-0.875,2.848-1.242,4.38-1.129c1.545,0.111,3.027,0.705,4.088,1.745l23.412,23.015c1.053,1.046,1.505,2.351,1.372,3.612
				c-0.139,1.27-0.862,2.496-2.126,3.371c-1.267,0.873-2.852,1.244-4.38,1.13c-1.54-0.109-3.028-0.708-4.081-1.752L315.722,158.343z
				"/>
			<path fill="#71B8B0" d="M292.999,183.337c-1.426-0.684-2.398-1.788-2.796-3.009v-0.009c-0.392-1.217-0.222-2.567,0.613-3.748
				c0.833-1.187,2.17-1.981,3.647-2.308h0.01c1.486-0.328,3.121-0.184,4.549,0.5l31.542,15.018c1.429,0.688,2.397,1.792,2.798,3.019
				c0.39,1.222,0.222,2.571-0.614,3.752c-0.829,1.187-2.166,1.979-3.646,2.308h-0.009c-1.481,0.321-3.121,0.183-4.552-0.5
				L292.999,183.337z"/>
			<path fill="#71B8B0" d="M282.028,213.246c-1.632-0.237-2.995-0.996-3.887-2.033c-0.885-1.043-1.283-2.358-1.002-3.698
				c0.289-1.353,1.208-2.483,2.465-3.213c1.26-0.731,2.866-1.066,4.499-0.833l35.862,5.218c1.631,0.237,2.995,0.996,3.887,2.033
				c0.884,1.047,1.282,2.358,1.002,3.698v0.013c-0.277,1.348-1.206,2.472-2.466,3.203c-1.26,0.733-2.856,1.064-4.481,0.832h-0.017
				L282.028,213.246z"/>
		</g>
	</g>
	<g>
		<rect x="250.412" y="411.546" fill="#FFFFFF" width="279.845" height="37.408"/>
		<g>
			<rect x="265.36" y="411.546" fill="#FFAE00" width="249.955" height="8.077"/>
			<rect x="501.226" y="411.546" fill="#FFAE00" width="5.324" height="18.703"/>
			<rect x="483.755" y="411.546" fill="#FFAE00" width="5.326" height="18.703"/>
			<rect x="466.28" y="411.546" fill="#FFAE00" width="5.333" height="18.703"/>
			<rect x="448.814" y="411.546" fill="#FFAE00" width="5.331" height="18.703"/>
			<rect x="431.347" y="411.546" fill="#FFAE00" width="5.323" height="18.703"/>
			<rect x="413.878" y="411.546" fill="#FFAE00" width="5.324" height="18.703"/>
			<rect x="396.41" y="411.546" fill="#FFAE00" width="5.326" height="18.703"/>
			<rect x="378.938" y="411.546" fill="#FFAE00" width="5.326" height="18.703"/>
			<rect x="361.468" y="411.546" fill="#FFAE00" width="5.321" height="18.703"/>
			<rect x="344.003" y="411.546" fill="#FFAE00" width="5.321" height="18.703"/>
			<rect x="326.532" y="411.546" fill="#FFAE00" width="5.321" height="18.703"/>
			<rect x="309.056" y="411.546" fill="#FFAE00" width="5.333" height="18.703"/>
			<polygon fill="#FFAE00" points="296.92,411.546 296.913,430.249 291.589,430.249 291.589,411.546 			"/>
			<rect x="274.12" y="411.546" fill="#FFAE00" width="5.323" height="18.703"/>
		</g>
	</g>
	<g>
		<path fill="#FFFFFF" d="M537.793,141.367"/>
		<g>
			<line fill="none" x1="560.789" y1="57.108" x2="560.789" y2="72.047"/>
		</g>
	</g>
	<g>
		<rect x="84.239" y="200.051" fill="#FFAE00" width="300.425" height="112.624"/>
		<rect x="92.386" y="207.745" fill="#FFEBBF" width="284.133" height="97.235"/>
		<path fill="#FFAE00" d="M342.332,200.051h42.332v34.914C361.29,234.965,342.332,219.333,342.332,200.051z"/>
		<path fill="#FFAE00" d="M126.573,312.675H84.239v-34.91C107.616,277.765,126.573,293.395,126.573,312.675z"/>
		<path fill="#FFAE00" d="M234.448,292.965c24.449,0,44.382-16.442,44.382-36.605c0-20.159-19.933-36.601-44.382-36.601
			c-24.44,0-44.376,16.442-44.376,36.601C190.072,276.522,210.008,292.965,234.448,292.965z"/>
		<text transform="matrix(1.2124 0 0 1 98.1255 237.5078)" fill="#FFAE00" font-family="'Arial-BoldMT'" font-size="27.1246">100</text>
		<text transform="matrix(1.2124 0 0 1 317.8979 302.9668)" fill="#FFAE00" font-family="'Arial-BoldMT'" font-size="27.1246">100</text>
		<path fill="#FFEBBF" d="M241.293,233.753c2.373,0.54,4.354,1.428,5.938,2.675c2.192,1.732,3.606,4.044,4.216,6.95l-8.902,0.961
			c-0.238-1.022-0.654-1.899-1.25-2.629v-7.957H241.293z M241.293,251.785c4.032,1.136,6.881,2.516,8.532,4.145
			c2.039,2,3.06,4.565,3.06,7.705c0,3.499-1.283,6.446-3.844,8.842c-1.981,1.861-4.566,3.158-7.747,3.902v-6.911
			c0.486-0.278,0.928-0.615,1.327-1.003c1.106-1.078,1.659-2.336,1.659-3.791c0-1.296-0.468-2.408-1.395-3.349
			c-0.409-0.418-0.935-0.795-1.592-1.123L241.293,251.785L241.293,251.785z M233.231,270.071v-12.153
			c-0.8-0.187-1.556-0.39-2.271-0.611v-8.78c0.621,0.435,1.378,0.807,2.271,1.121v-10.045c-0.876,0.243-1.632,0.598-2.271,1.046
			v-7.074c0.724-0.133,1.481-0.233,2.271-0.297v-2.875h5.085v2.875c1.056,0.105,2.051,0.267,2.978,0.476v7.956
			c-0.722-0.895-1.717-1.566-2.978-2.014v11.342c1.065,0.234,2.051,0.483,2.978,0.748v8.418c-0.808-0.412-1.794-0.76-2.978-1.038
			v11.314c1.133-0.17,2.129-0.508,2.978-1.01v6.91c-0.935,0.225-1.931,0.393-2.978,0.518v5.43h-5.085v-5.289
			c-0.789-0.079-1.548-0.189-2.271-0.33v-7.966C231.668,269.308,232.423,269.752,233.231,270.071z M230.96,257.307
			c-3.459-1.056-6.081-2.491-7.857-4.311c-2.136-2.197-3.216-4.864-3.216-7.992c0-3.169,1.209-5.836,3.631-7.996
			c1.965-1.734,4.441-2.878,7.442-3.434v7.074c-0.393,0.273-0.741,0.583-1.047,0.927c-0.814,0.933-1.224,1.964-1.224,3.077
			c0,1.025,0.373,1.985,1.114,2.855c0.315,0.371,0.699,0.708,1.157,1.018L230.96,257.307L230.96,257.307z M230.96,276.708
			c-3.043-0.591-5.588-1.729-7.627-3.417c-2.534-2.079-4.143-5.029-4.857-8.845l9.193-0.812c0.366,1.545,1.083,2.882,2.111,4.001
			c0.372,0.41,0.765,0.781,1.18,1.106L230.96,276.708L230.96,276.708z"/>
	</g>
</g>
</svg>
