<?xml version="1.0" encoding="utf-8"?>
<!-- Generator: Adobe Illustrator 16.0.0, SVG Export Plug-In . SVG Version: 6.00 Build 0)  -->
<!DOCTYPE svg PUBLIC "-//W3C//DTD SVG 1.1//EN" "http://www.w3.org/Graphics/SVG/1.1/DTD/svg11.dtd">
<svg version="1.1" id="Layer_1" xmlns="http://www.w3.org/2000/svg" xmlns:xlink="http://www.w3.org/1999/xlink" x="0px" y="0px"
	 width="640px" height="480px" viewBox="0 0 640 480" enable-background="new 0 0 640 480" xml:space="preserve">
<g>
	<ellipse fill="#FC611F" cx="322.558" cy="268.867" rx="205.199" ry="196.556"/>
	<g>
		<g>
			<g>
				<path fill="#0E303F" d="M365.15,175.902c-1.115,2.138-3.259,3.274-4.83,2.601c-24.665-10.619-52.906-10.619-77.567,0
					c-1.57,0.674-3.721-0.462-4.829-2.601c-0.082-0.164-0.166-0.324-0.247-0.485c-1.116-2.142-0.615-4.539,1.144-5.297
					c27.166-11.691,58.264-11.691,85.431,0c1.755,0.755,2.256,3.155,1.144,5.297C365.313,175.577,365.231,175.738,365.15,175.902z"
					/>
				<path fill="#2C5871" d="M364.252,170.12c-27.163-11.691-58.266-11.691-85.431,0c-1.759,0.755-2.26,3.155-1.144,5.297
					c27.667-12.983,60.05-12.983,87.719,0C366.508,173.275,366.005,170.878,364.252,170.12z"/>
			</g>
			<g>
				<g>
					<path fill="#FEC00F" d="M286.88,200.572c0,1.585-1.333,2.866-2.987,2.866h-0.494c-1.649,0-2.985-1.28-2.985-2.866v-24.314
						c0-1.583,1.335-2.863,2.985-2.863h0.494c1.654,0,2.987,1.279,2.987,2.863V200.572z"/>
					<path fill="#FEC00F" d="M290.862,189.842c0,3.82-3.227,6.913-7.222,6.913c-3.981,0-7.217-3.093-7.217-6.913
						c0-3.817,3.235-6.913,7.217-6.913C287.635,182.931,290.862,186.025,290.862,189.842z"/>
				</g>
				<g>
					<path fill="#FEC00F" d="M362.667,200.572c0,1.585-1.341,2.866-2.985,2.866h-0.5c-1.644,0-2.979-1.28-2.979-2.866v-24.314
						c0-1.583,1.336-2.863,2.979-2.863h0.5c1.645,0,2.985,1.279,2.985,2.863V200.572z"/>
					<ellipse fill="#FEC00F" cx="359.432" cy="189.842" rx="7.22" ry="6.913"/>
				</g>
			</g>
			<path fill="#0E303F" d="M457.921,356.491c0,4.74-4.013,8.585-8.961,8.585H194.112c-4.95,0-8.958-3.845-8.958-8.585V198.194
				c0-4.742,4.008-8.585,8.958-8.585H448.96c4.948,0,8.961,3.843,8.961,8.585V356.491L457.921,356.491z"/>
			<path fill="#2C5871" d="M457.921,256.363c0,4.716-3.941,9.537-8.831,10.679c-83.854,19.212-171.255,19.212-255.107,0
				c-4.885-1.142-8.838-5.963-8.829-10.679c0-19.389,0-38.779,0-58.17c-0.009-4.709,3.995-8.555,8.958-8.585
				c84.949,0,169.904,0,254.848,0c4.953,0.029,8.961,3.876,8.961,8.585C457.921,217.584,457.921,236.976,457.921,256.363z"/>
			<path fill="#0E303F" d="M321.536,275.729c-42.446,0-84.894-4.795-126.168-14.247c-2.165-0.508-4.248-2.996-4.248-5.114v-58.174
				c0-1.572,1.354-2.854,3.012-2.858h254.827c1.637,0.004,2.994,1.29,2.994,2.862v58.166c0,2.123-2.083,4.611-4.281,5.124
				C406.425,270.935,363.979,275.729,321.536,275.729L321.536,275.729z"/>
			<path fill="#2C5871" d="M321.536,267.15c-40.315,0-80.653-4.283-120.737-12.729c-2.113-0.454-4.251-2.674-4.387-4.563
				c-1.22-17.325-2.436-34.647-3.653-51.969c-0.106-1.399,1.154-2.547,2.807-2.552c83.988,0,167.979,0,251.981,0
				c1.616,0.005,2.868,1.153,2.766,2.552c-1.216,17.325-2.436,34.644-3.657,51.969c-0.126,1.883-2.274,4.114-4.412,4.571
				C402.197,262.866,361.851,267.15,321.536,267.15L321.536,267.15z"/>
			<path fill="#0E303F" d="M304.115,189.13v76.105c0,3.792,1.336,6.871,2.98,6.871h28.881c1.643,0,2.98-3.079,2.98-6.871V189.13
				H304.115L304.115,189.13z"/>
			<g>
				<path fill="#2C5871" d="M308.35,189.13v76.105c0,3.792,0.152,6.871,0.333,6.871h3.306c0.183,0,0.341-3.079,0.341-6.871V189.13
					H308.35L308.35,189.13z"/>
				<path fill="#2C5871" d="M330.748,189.13v76.105c0,3.792,0.154,6.871,0.335,6.871h3.307c0.186,0,0.342-3.079,0.342-6.871V189.13
					H330.748L330.748,189.13z"/>
			</g>
			<g>
				<path fill="#FEC00F" d="M336.969,299.281c-0.007,1.383-1.151,2.947-2.574,3.381c-8.381,2.474-17.336,2.474-25.717,0
					c-1.437-0.434-2.578-1.998-2.572-3.381c0-9.853,0-19.708,0-29.56c0-1.382,1.143-2.941,2.572-3.381
					c8.383-2.47,17.337-2.47,25.717,0c1.431,0.439,2.567,1.999,2.574,3.381C336.969,279.573,336.969,289.429,336.969,299.281z"/>
				<path fill="#F99B1C" d="M334.395,267.346c-8.381-2.329-17.336-2.329-25.717,0c-1.429,0.406-2.572,1.879-2.572,3.176
					c0,4.297,0,8.585,0,12.88c0.092,0.008,0.186,0.043,0.282,0.043c10.191,0,20.384,0,30.581,0c0-4.302,0-8.613,0-12.923
					C336.962,269.225,335.825,267.75,334.395,267.346z"/>
				<path fill="#F99B1C" d="M306.105,286.184c0,4.367,0,8.735,0,13.098c-0.006,1.383,1.135,2.947,2.572,3.381
					c8.383,2.474,17.337,2.474,25.717,0c1.423-0.434,2.567-1.998,2.574-3.381c0-4.362,0-8.73,0-13.098H306.105L306.105,286.184z"/>
				<path fill="#FEC00F" d="M321.536,301.984c-4.093,0-8.156-0.592-12.078-1.743c-0.31-0.095-0.708-0.668-0.708-0.95V288.72h25.571
					v10.562c0,0.311-0.426,0.872-0.737,0.967C329.695,301.393,325.635,301.984,321.536,301.984L321.536,301.984z"/>
			</g>
		</g>
	</g>
	<g>
		<g>
			<g>
				<path fill="#FFCCBB" d="M336.75,148.418l15.186,0.002v23.432c0,1.865-0.743,3.717-2.218,5.142
					c-1.487,1.417-3.434,2.135-5.378,2.131l0,0c-1.937,0.003-3.883-0.715-5.366-2.131c-1.487-1.424-2.229-3.279-2.224-5.142V148.418
					L336.75,148.418z"/>
				<path fill="#FFCCBB" d="M320.808,148.421h15.18v23.432c0,1.858-0.744,3.72-2.217,5.142c-1.49,1.421-3.435,2.131-5.382,2.135l0,0
					c-1.938,0-3.887-0.716-5.372-2.132c-1.472-1.427-2.218-3.286-2.209-5.144V148.421L320.808,148.421z"/>
				<path fill="#FFCCBB" d="M304.85,148.418h15.193l-0.002,23.438c0.002,1.858-0.74,3.721-2.232,5.142
					c-1.477,1.417-3.426,2.13-5.37,2.13l0,0c-1.938,0-3.873-0.714-5.37-2.13c-1.488-1.421-2.213-3.281-2.217-5.142v-23.438H304.85z"
					/>
				<path fill="#FFCCBB" d="M288.907,148.418l15.185,0.002v19.751c0,1.858-0.741,3.727-2.234,5.142
					c-1.468,1.426-3.417,2.138-5.365,2.138l0,0c-1.943,0-3.882-0.709-5.367-2.138c-1.487-1.417-2.218-3.284-2.213-5.144
					L288.907,148.418z"/>
			</g>
		</g>
		<rect x="300.173" y="92.562" fill="#FFCCBB" width="46.744" height="17.936"/>
		<path fill="#FFCCBB" d="M351.936,108.493v40.269h-63.033v-29.273c0-2.172,0.354-4.396,1.095-6.571
			c0.74-2.178,1.811-4.154,3.139-5.913l7.042-9.284h40.508L351.936,108.493z"/>
		<path fill="#FFCCBB" d="M369.051,128.807c0-1.238-0.243-2.403-0.77-3.618c-0.525-1.214-1.279-2.268-2.193-3.142l-25.401-24.33
			l-10.729,10.276l23.918,22.911v13.319c0,2.791,1.112,5.585,3.335,7.713c2.224,2.131,5.141,3.197,8.056,3.197h1.267
			c0.647,0,1.298-0.236,1.792-0.71c0.494-0.473,0.737-1.412,0.737-2.031L369.051,128.807z"/>
		<polygon fill="#E1EFFA" points="293.223,81.571 352.828,81.571 352.835,92.559 293.217,92.559 		"/>
		<rect x="288.911" y="6.59" fill="#087187" width="68.245" height="74.981"/>
		<path fill="#50A6D5" d="M297.198,71.315c0-1.27,1.082-2.301,2.405-2.301c1.334,0,2.408,1.035,2.408,2.303
			c-0.003,1.272-1.074,2.296-2.408,2.296C298.28,73.613,297.198,72.59,297.198,71.315z"/>
	</g>
	<g>
		<g>
			<path fill="#1695A4" d="M244.45,393.093c0,2.532-2.142,4.588-4.79,4.588h-97.079c-2.642,0-4.789-2.055-4.789-4.588V273.188
				c0-2.537,2.147-4.592,4.789-4.592h97.079c2.647,0,4.79,2.053,4.79,4.592V393.093z"/>
			<path fill="#15B0BF" d="M244.45,389.638c0,2.536-2.142,4.586-4.79,4.586h-97.079c-2.642,0-4.789-2.049-4.789-4.586V269.73
				c0-2.533,2.147-4.587,4.789-4.587h97.079c2.647,0,4.79,2.053,4.79,4.587V389.638z"/>
			<rect x="146.417" y="273.401" fill="#FFFFFF" width="89.413" height="112.565"/>
			<rect x="146.417" y="382.294" fill="#D1ECFB" width="89.413" height="3.674"/>
			<path fill="#F99B1C" d="M211.88,279.374v-4.589c0-1.525-1.288-2.757-2.872-2.757h-35.771c-1.586,0-2.87,1.229-2.87,2.757v4.589
				H211.88z"/>
			<path fill="#FEC00F" d="M211.88,277.376v-4.588c0-1.521-1.288-2.754-2.872-2.754h-35.771c-1.586,0-2.87,1.232-2.87,2.754v4.588
				H211.88z"/>
			<ellipse fill="#FEC00F" cx="191.122" cy="269.731" rx="6.708" ry="6.425"/>
			<path fill="#2C5871" d="M193.992,269.73c0,1.521-1.28,2.753-2.871,2.753c-1.584,0-2.871-1.231-2.871-2.753
				s1.286-2.752,2.871-2.752C192.712,266.979,193.992,268.211,193.992,269.73z"/>
			<g>
				<rect x="168.061" y="303.501" fill="#A6DAE9" width="55.73" height="2.805"/>
				<rect x="168.061" y="315.022" fill="#A6DAE9" width="55.73" height="2.801"/>
				<rect x="168.061" y="326.543" fill="#A6DAE9" width="55.73" height="2.808"/>
				<rect x="168.061" y="338.063" fill="#A6DAE9" width="55.73" height="2.805"/>
			</g>
			<g>
				<path fill="#15B0BF" d="M157.729,308.202c-0.366,0-0.716-0.143-0.97-0.396l-2.197-2.209c-0.511-0.513-0.49-1.324,0.045-1.811
					c0.536-0.488,1.383-0.471,1.892,0.04l1.155,1.16l3.887-4.54c0.469-0.548,1.309-0.628,1.884-0.177
					c0.571,0.449,0.653,1.257,0.185,1.805l-4.847,5.66c-0.241,0.284-0.602,0.455-0.981,0.467
					C157.763,308.202,157.745,308.202,157.729,308.202L157.729,308.202z"/>
			</g>
			<g>
				<path fill="#15B0BF" d="M157.729,319.274c-0.366,0-0.717-0.143-0.97-0.399l-2.197-2.207c-0.511-0.513-0.49-1.324,0.046-1.813
					c0.537-0.487,1.382-0.468,1.891,0.043l1.155,1.161l3.885-4.546c0.469-0.547,1.312-0.621,1.886-0.179
					c0.571,0.45,0.653,1.258,0.186,1.808l-4.845,5.663c-0.243,0.284-0.604,0.457-0.984,0.467
					C157.763,319.274,157.745,319.274,157.729,319.274L157.729,319.274z"/>
			</g>
			<g>
				<path fill="#15B0BF" d="M157.729,330.341c-0.366,0-0.716-0.143-0.97-0.396l-2.197-2.206c-0.511-0.513-0.49-1.326,0.045-1.813
					c0.536-0.488,1.383-0.467,1.892,0.043l1.155,1.16l3.887-4.542c0.469-0.548,1.309-0.628,1.884-0.178
					c0.571,0.45,0.653,1.258,0.185,1.806l-4.847,5.658c-0.241,0.287-0.602,0.457-0.981,0.47
					C157.763,330.341,157.745,330.341,157.729,330.341L157.729,330.341z"/>
			</g>
			<g>
				<path fill="#15B0BF" d="M193.634,370.912c-0.064,0-0.12-0.007-0.163-0.014c-0.759-0.122-1.11-0.989-1.333-1.73
					c-0.658-2.22-0.291-4.623,0.982-6.565c-0.219-0.658-0.503-1.31-0.863-1.922c-0.201-0.342-0.073-0.779,0.286-0.974
					c0.354-0.19,0.811-0.071,1.017,0.273c0.244,0.418,0.46,0.856,0.649,1.303c1.359-1.315,3.154-2.053,5.054-2.053
					c2.455,0,4.741,2.124,6.063,4.111c0.053,0.079,0.103,0.156,0.154,0.235c2.291-1.468,5.342-2.593,7.014-2.399
					c2.189,0.249,2.434,2.254,2.454,3.556c0.59-0.771,0.789-1.328,0.939-1.745c0.564-1.559,1.126-1.453,4.793-0.778l0.764,0.142
					c0.403,0.073,0.668,0.447,0.592,0.836c-0.075,0.386-0.46,0.644-0.873,0.565l-0.765-0.14c-1.615-0.297-2.777-0.509-3.046-0.44
					h0.005c0.045,0-0.013,0.157-0.058,0.281c-0.188,0.516-0.467,1.297-1.343,2.368c-0.598,0.729-1.132,1.329-1.833,1.093
					c-0.677-0.224-0.671-0.915-0.667-1.713c0.013-1.643-0.162-2.496-1.142-2.607c-1.496-0.171-4.213,0.994-6.144,2.256
					c0.596,1.297,0.851,2.636,0.216,3.447c-0.264,0.339-0.901,0.857-2.242,0.484c-1.806-0.497-1.698-1.706-1.623-2.064
					c0.149-0.721,0.819-1.52,1.757-2.28c-0.065-0.107-0.136-0.218-0.21-0.33c-1.058-1.59-2.95-3.449-4.805-3.449
					c-1.777,0-3.378,0.782-4.518,2.2c0.877,3.204,0.561,6.53-0.182,7.541C194.252,370.83,193.876,370.912,193.634,370.912
					L193.634,370.912z M193.646,364.885c-0.419,1.248-0.456,2.609-0.072,3.895c0.011,0.036,0.021,0.068,0.032,0.102
					C193.791,368.021,193.876,366.527,193.646,364.885L193.646,364.885z M204.956,365.756c-0.541,0.467-0.9,0.902-0.97,1.246
					c-0.016,0.065-0.051,0.238,0.572,0.407c0.421,0.118,0.609,0.072,0.639,0.035C205.328,367.276,205.314,366.668,204.956,365.756
					L204.956,365.756z"/>
			</g>
		</g>
	</g>
	<g>
		<g>
			<g>
				<path fill="#50667E" d="M515.013,421.163c-0.44,0-0.885-0.096-1.289-0.316l-22.932-11.798
					c-4.407-2.272-9.106-4.015-13.957-5.187c-4.857-1.176-9.858-1.764-14.868-1.764H361.188v-5.237h100.779
					c5.459,0,10.905,0.653,16.201,1.926c5.283,1.275,10.402,3.18,15.209,5.658l22.93,11.799c1.33,0.684,1.825,2.272,1.114,3.544
					C516.929,420.664,515.987,421.163,515.013,421.163z"/>
				<path fill="#50667E" d="M358.306,421.163c0.433,0,0.88-0.096,1.291-0.316l22.926-11.798c4.405-2.272,9.104-4.015,13.957-5.187
					c4.854-1.176,9.855-1.764,14.864-1.764h100.785v-5.237H411.344c-5.46,0-10.907,0.653-16.195,1.926
					c-5.29,1.275-10.4,3.18-15.214,5.658l-22.929,11.799c-1.325,0.684-1.824,2.272-1.112,3.544
					C356.39,420.664,357.332,421.163,358.306,421.163z"/>
			</g>
		</g>
		<path fill="#20364D" d="M429.479,401.027L429.479,401.027c0-3.793,3.221-6.871,7.174-6.871c3.967,0,7.189,3.078,7.189,6.871l0,0
			h5.459l0,0c0-6.69-5.658-12.11-12.648-12.11c-6.977,0-12.639,5.42-12.639,12.11l0,0H429.479z"/>
		<g>
			<path fill="#E1EFFA" d="M424.012,409.216c0,5.515-4.706,10.025-10.46,10.025h-36.442c-5.752,0-10.459-4.511-10.459-10.025
				v-18.816c0-5.511,4.707-10.022,10.459-10.022h36.442c5.754,0,10.46,4.512,10.46,10.022V409.216z"/>
			<path fill="#CEE2F2" d="M413.553,380.376h-20.049v38.864h20.049c5.753,0,10.459-4.511,10.459-10.025v-18.816
				C424.012,384.889,419.306,380.376,413.553,380.376z"/>
		</g>
		<g>
			<path fill="#E1EFFA" d="M506.505,409.216c0,5.515-4.707,10.025-10.46,10.025h-36.444c-5.755,0-10.46-4.511-10.46-10.025v-18.816
				c0-5.511,4.705-10.022,10.46-10.022h36.444c5.753,0,10.46,4.512,10.46,10.022V409.216z"/>
			<path fill="#CEE2F2" d="M496.045,380.376h-20.052v38.864h20.052c5.753,0,10.46-4.511,10.46-10.025v-18.816
				C506.505,384.889,501.798,380.376,496.045,380.376z"/>
		</g>
		<path fill="#2A445E" d="M416.267,375.278h-41.869c-7.27,0-13.209,5.693-13.209,12.648v23.763c0,6.957,5.939,12.649,13.209,12.649
			h41.869c7.269,0,13.211-5.694,13.211-12.649v-23.763C429.479,380.972,423.535,375.278,416.267,375.278z M424.012,409.216
			c0,5.515-4.706,10.025-10.46,10.025h-36.442c-5.752,0-10.459-4.511-10.459-10.025v-18.816c0-5.511,4.707-10.022,10.459-10.022
			h36.442c5.754,0,10.46,4.512,10.46,10.022V409.216z"/>
		<path fill="#2A445E" d="M498.757,375.278h-41.872c-7.264,0-13.206,5.693-13.206,12.648v23.763c0,6.957,5.942,12.649,13.206,12.649
			h41.872c7.267,0,13.207-5.694,13.207-12.649v-23.763C511.965,380.972,506.025,375.278,498.757,375.278z M506.505,409.216
			c0,5.515-4.707,10.025-10.46,10.025h-36.444c-5.755,0-10.46-4.511-10.46-10.025v-18.816c0-5.511,4.705-10.022,10.46-10.022h36.444
			c5.753,0,10.46,4.512,10.46,10.022V409.216z"/>
	</g>
</g>
</svg>
