<?xml version="1.0" encoding="utf-8"?>
<!-- Generator: Adobe Illustrator 16.0.0, SVG Export Plug-In . SVG Version: 6.00 Build 0)  -->
<!DOCTYPE svg PUBLIC "-//W3C//DTD SVG 1.1//EN" "http://www.w3.org/Graphics/SVG/1.1/DTD/svg11.dtd">
<svg version="1.1" id="Layer_1" xmlns="http://www.w3.org/2000/svg" xmlns:xlink="http://www.w3.org/1999/xlink" x="0px" y="0px"
	 width="640px" height="480px" viewBox="0 0 640 480" enable-background="new 0 0 640 480" xml:space="preserve">
<g>
	<g>
		<g>
			<path fill="#1D1D1B" d="M124.908,291.963c0.599,0.068,1.196,0.102,1.785,0.102c6.701,0,12.526-4.329,13.424-10.276l3.509-111.251
				v97.564v0.89v152.724c0,7.343,6.828,13.295,15.25,13.295c8.423,0,15.252-5.952,15.252-13.295V283.915
				c-0.03-0.146-0.046-0.296-0.046-0.451c0-1.453,1.351-2.629,3.017-2.629c1.667,0,3.017,1.176,3.017,2.629h0.113v138.25
				c0,7.343,6.828,13.295,15.25,13.295c8.424,0,15.252-5.952,15.252-13.295V268.995c0-0.002,0-0.004,0-0.005v-98.182l2.984,110.638
				c0.705,6.091,6.596,10.633,13.471,10.633c0.456,0,0.914-0.021,1.376-0.059c7.449-0.657,12.88-6.451,12.13-12.943l-6.412-130.695
				c-0.724-4.201-3.903-7.55-8.078-9.109c-4.939-2.146-28.427-11.877-48.587-12.141c-22.66-0.295-49.718,12.21-49.718,12.21
				c0.011,0,0.018,0.001,0.029,0.001c-4.085,1.588-7.185,4.898-7.899,9.039l-6.794,130.324
				C112.258,285.173,117.484,291.11,124.908,291.963z M162.891,190.415l13.593-44.249c0.157-0.51,0.309-0.938,0.457-1.3h-3.689
				c-2.037,0-3.688-1.438-3.688-3.214v-6.697c0-1.776,1.651-3.215,3.688-3.215h3.689h3.687c2.037,0,3.689,1.439,3.689,3.215v6.697
				c0,1.775-1.652,3.214-3.689,3.214h-3.687c0.146,0.362,0.298,0.79,0.454,1.3l13.593,44.249c1.105,3.596,0.219,9.158-1.971,12.357
				l-9.651,14.1c-0.911,1.333-1.754,2.027-2.425,2.124c-0.672-0.097-1.515-0.791-2.427-2.124l-9.65-14.1
				C162.674,199.573,161.787,194.011,162.891,190.415z"/>
			<path fill="#1D1D1B" d="M177.01,125.164c8.827,0,16.398-6.63,20.358-14.24c5.345-10.269,5.417-22.349,5.417-22.564
				c0-16.641-7.244-23.46-25.775-23.46c-18.532,0-25.917,7.314-25.917,23.957c0,0.122,0.251,10.342,4.617,19.825
				C159.654,117.241,167.168,125.164,177.01,125.164z"/>
		</g>
	</g>
	<g>
		<g>
			<path fill="#1D1D1B" d="M526.441,278.706l-6.795-130.324c-0.713-4.141-3.813-7.451-7.896-9.039c0.009,0,0.017-0.001,0.026-0.001
				c0,0-27.055-12.505-49.717-12.21c-20.161,0.264-43.648,9.995-48.588,12.141c-4.173,1.559-7.353,4.908-8.077,9.109l-6.411,130.695
				c-0.75,6.492,4.679,12.286,12.131,12.943c0.459,0.038,0.922,0.059,1.374,0.059c6.876,0,12.768-4.542,13.473-10.633l2.981-110.638
				v98.182c0,0.001,0,0.003,0,0.005v152.719c0,7.343,6.829,13.295,15.252,13.295c8.424,0,15.253-5.952,15.253-13.295v-138.25h0.112
				c0-1.453,1.352-2.629,3.018-2.629c1.668,0,3.019,1.176,3.019,2.629c0,0.155-0.019,0.306-0.049,0.451v137.799
				c0,7.343,6.829,13.295,15.252,13.295c8.422,0,15.251-5.952,15.251-13.295V268.99v-0.89v-97.564l3.51,111.251
				c0.896,5.947,6.723,10.276,13.424,10.276c0.589,0,1.188-0.033,1.785-0.102C522.192,291.11,527.419,285.173,526.441,278.706z
				 M474.813,202.771l-9.649,14.1c-0.913,1.333-1.754,2.027-2.429,2.124c-0.671-0.097-1.514-0.791-2.426-2.124l-9.648-14.1
				c-2.191-3.199-3.077-8.761-1.973-12.357l13.595-44.249c0.154-0.51,0.308-0.938,0.452-1.3h-3.687
				c-2.035,0-3.688-1.438-3.688-3.214v-6.697c0-1.776,1.652-3.215,3.688-3.215h3.687h3.689c2.037,0,3.688,1.439,3.688,3.215v6.697
				c0,1.775-1.651,3.214-3.688,3.214h-3.689c0.15,0.362,0.301,0.79,0.457,1.3l13.592,44.249
				C477.89,194.011,477.002,199.573,474.813,202.771z"/>
			<path fill="#1D1D1B" d="M462.667,125.164c-8.829,0-16.4-6.63-20.359-14.24c-5.344-10.269-5.417-22.349-5.417-22.564
				c0-16.641,7.243-23.46,25.776-23.46c18.531,0,25.915,7.314,25.915,23.957c0,0.122-0.251,10.342-4.618,19.825
				C480.021,117.241,472.507,125.164,462.667,125.164z"/>
		</g>
	</g>
	<g>
		<g>
			<path fill="#1D1D1B" d="M395.843,283.859l-8.097-155.315c-0.853-4.935-4.545-8.881-9.412-10.773c0.01,0,0.021-0.001,0.033-0.001
				c0,0-32.248-14.903-59.252-14.55c-24.025,0.312-52.018,11.911-57.904,14.469c-4.975,1.857-8.765,5.848-9.626,10.855
				l-7.641,155.757c-0.895,7.74,5.577,14.645,14.456,15.424c0.551,0.048,1.098,0.071,1.64,0.071c8.194,0,15.216-5.413,16.055-12.67
				l3.557-131.856v117.01c0,0.002,0,0.004,0,0.004v182.009c0,8.75,8.138,15.843,18.176,15.843c10.039,0,18.174-7.093,18.174-15.843
				V289.529h0.136c0-1.729,1.608-3.135,3.596-3.135s3.596,1.405,3.596,3.135c0,0.186-0.02,0.364-0.056,0.54v164.224
				c0,8.75,8.138,15.843,18.177,15.843c10.038,0,18.176-7.093,18.176-15.843V272.28v-1.056V154.948l4.183,132.584
				c1.069,7.089,8.013,12.248,15.998,12.248c0.702,0,1.413-0.041,2.128-0.122C390.78,298.644,397.007,291.57,395.843,283.859z
				 M334.315,193.363l-11.502,16.805c-1.088,1.589-2.092,2.415-2.892,2.532c-0.803-0.117-1.806-0.943-2.892-2.532l-11.501-16.805
				c-2.609-3.812-3.667-10.439-2.349-14.726l16.2-52.733c0.185-0.61,0.366-1.119,0.542-1.55h-4.397
				c-2.424,0-4.394-1.715-4.394-3.831v-7.98c0-2.117,1.97-3.832,4.394-3.832h4.397h4.394c2.429,0,4.396,1.715,4.396,3.832v7.98
				c0,2.116-1.967,3.831-4.396,3.831h-4.394c0.174,0.431,0.356,0.94,0.542,1.55l16.199,52.733
				C337.979,182.924,336.922,189.551,334.315,193.363z"/>
			<path fill="#1D1D1B" d="M319.836,100.873c-10.519,0-19.541-7.9-24.26-16.969c-6.37-12.239-6.457-26.635-6.457-26.893
				c0-19.832,8.634-27.958,30.716-27.958c22.086,0,30.887,8.716,30.887,28.548c0,0.147-0.299,12.327-5.505,23.628
				C340.521,91.43,331.566,100.873,319.836,100.873z"/>
		</g>
	</g>
</g>
</svg>
